<svg xmlns="http://www.w3.org/2000/svg" viewBox="0 0 360 270" width="360" height="270" role="img" aria-label="VISION">
  <defs>
    <linearGradient id="g" gradientTransform="rotate(318 0.5 0.5)">
      <stop offset="0" stop-color="hsl(262 72% 56%)" />
      <stop offset="1" stop-color="hsl(302 68% 46%)" />
    </linearGradient>
    <radialGradient id="v" cx="0.3" cy="0.25" r="0.9">
      <stop offset="0" stop-color="#ffffff" stop-opacity="0.16" />
      <stop offset="1" stop-color="#000000" stop-opacity="0.14" />
    </radialGradient>
  </defs>
  <rect width="360" height="270" fill="url(#g)" />
  <circle cx="180" cy="135" r="92" fill="none" stroke="#ffffff" stroke-width="6" opacity="0.4" />
  <path d="M 180 135 L 271.9 138.8 A 92 92 0 0 1 222.4 216.6 Z" fill="#ffffff" opacity="0.10" />
  <path d="M 180 135 L 222.6 216.5 A 92 92 0 0 1 130.5 212.6 Z" fill="#ffffff" opacity="0.22" />
  <path d="M 180 135 L 130.7 212.7 A 92 92 0 0 1 88.1 130.9 Z" fill="#ffffff" opacity="0.10" />
  <path d="M 180 135 L 88.1 131.2 A 92 92 0 0 1 137.6 53.4 Z" fill="#ffffff" opacity="0.22" />
  <path d="M 180 135 L 137.4 53.5 A 92 92 0 0 1 229.5 57.4 Z" fill="#ffffff" opacity="0.10" />
  <path d="M 180 135 L 229.3 57.3 A 92 92 0 0 1 271.9 139.1 Z" fill="#ffffff" opacity="0.22" />
  <circle cx="180" cy="135" r="22" fill="#ffffff" opacity="0.85" />
  <rect width="360" height="270" fill="url(#v)" />
</svg>
