<svg xmlns="http://www.w3.org/2000/svg" viewBox="0 0 360 270" width="360" height="270" role="img" aria-label="LLM">
  <defs>
    <linearGradient id="g" gradientTransform="rotate(356 0.5 0.5)">
      <stop offset="0" stop-color="hsl(222 72% 56%)" />
      <stop offset="1" stop-color="hsl(252 68% 46%)" />
    </linearGradient>
    <radialGradient id="v" cx="0.3" cy="0.25" r="0.9">
      <stop offset="0" stop-color="#ffffff" stop-opacity="0.16" />
      <stop offset="1" stop-color="#000000" stop-opacity="0.14" />
    </radialGradient>
  </defs>
  <rect width="360" height="270" fill="url(#g)" />
  <rect x="40" y="58" width="92" height="16" rx="8" fill="#ffffff" opacity="0.246" />
  <rect x="146" y="58" width="34" height="16" rx="8" fill="#ffffff" opacity="0.244" />
  <rect x="194" y="58" width="95" height="16" rx="8" fill="#ffffff" opacity="0.175" />
  <rect x="303" y="58" width="86" height="16" rx="8" fill="#ffffff" opacity="0.235" />
  <rect x="40" y="90" width="42" height="16" rx="8" fill="#ffffff" opacity="0.205" />
  <rect x="96" y="90" width="57" height="16" rx="8" fill="#ffffff" opacity="0.176" />
  <rect x="167" y="90" width="44" height="16" rx="8" fill="#ffffff" opacity="0.194" />
  <rect x="225" y="90" width="86" height="16" rx="8" fill="#ffffff" opacity="0.183" />
  <rect x="40" y="122" width="86" height="16" rx="8" fill="#ffffff" opacity="0.600" />
  <rect x="140" y="122" width="49" height="16" rx="8" fill="#ffffff" opacity="0.600" />
  <rect x="203" y="122" width="63" height="16" rx="8" fill="#ffffff" opacity="0.600" />
  <rect x="280" y="122" width="46" height="16" rx="8" fill="#ffffff" opacity="0.600" />
  <rect x="40" y="154" width="79" height="16" rx="8" fill="#ffffff" opacity="0.237" />
  <rect x="133" y="154" width="51" height="16" rx="8" fill="#ffffff" opacity="0.171" />
  <rect x="198" y="154" width="86" height="16" rx="8" fill="#ffffff" opacity="0.213" />
  <rect x="298" y="154" width="69" height="16" rx="8" fill="#ffffff" opacity="0.176" />
  <rect x="40" y="186" width="72" height="16" rx="8" fill="#ffffff" opacity="0.183" />
  <rect x="126" y="186" width="93" height="16" rx="8" fill="#ffffff" opacity="0.214" />
  <rect x="233" y="186" width="35" height="16" rx="8" fill="#ffffff" opacity="0.226" />
  <rect x="282" y="186" width="79" height="16" rx="8" fill="#ffffff" opacity="0.194" />
  <rect width="360" height="270" fill="url(#v)" />
</svg>
