<svg xmlns="http://www.w3.org/2000/svg" viewBox="0 0 360 270" width="360" height="270" role="img" aria-label="VISION, SYSTEMS">
  <defs>
    <linearGradient id="g" gradientTransform="rotate(315 0.5 0.5)">
      <stop offset="0" stop-color="hsl(224 72% 56%)" />
      <stop offset="1" stop-color="hsl(266 68% 46%)" />
    </linearGradient>
    <radialGradient id="v" cx="0.3" cy="0.25" r="0.9">
      <stop offset="0" stop-color="#ffffff" stop-opacity="0.16" />
      <stop offset="1" stop-color="#000000" stop-opacity="0.14" />
    </radialGradient>
  </defs>
  <rect width="360" height="270" fill="url(#g)" />
  <circle cx="180" cy="135" r="92" fill="none" stroke="#ffffff" stroke-width="6" opacity="0.4" />
  <path d="M 180 135 L 254.4 189.1 A 92 92 0 0 1 170.2 226.5 Z" fill="#ffffff" opacity="0.10" />
  <path d="M 180 135 L 170.4 226.5 A 92 92 0 0 1 95.9 172.2 Z" fill="#ffffff" opacity="0.22" />
  <path d="M 180 135 L 96.0 172.4 A 92 92 0 0 1 105.7 80.7 Z" fill="#ffffff" opacity="0.10" />
  <path d="M 180 135 L 105.6 80.9 A 92 92 0 0 1 189.8 43.5 Z" fill="#ffffff" opacity="0.22" />
  <path d="M 180 135 L 189.6 43.5 A 92 92 0 0 1 264.1 97.8 Z" fill="#ffffff" opacity="0.10" />
  <path d="M 180 135 L 264.0 97.6 A 92 92 0 0 1 254.3 189.3 Z" fill="#ffffff" opacity="0.22" />
  <circle cx="180" cy="135" r="22" fill="#ffffff" opacity="0.85" />
  <rect width="360" height="270" fill="url(#v)" />
</svg>
