<svg xmlns="http://www.w3.org/2000/svg" viewBox="0 0 360 270" width="360" height="270" role="img" aria-label="SYSTEMS, VISION">
  <defs>
    <linearGradient id="g" gradientTransform="rotate(115 0.5 0.5)">
      <stop offset="0" stop-color="hsl(220 72% 56%)" />
      <stop offset="1" stop-color="hsl(245 68% 46%)" />
    </linearGradient>
    <radialGradient id="v" cx="0.3" cy="0.25" r="0.9">
      <stop offset="0" stop-color="#ffffff" stop-opacity="0.16" />
      <stop offset="1" stop-color="#000000" stop-opacity="0.14" />
    </radialGradient>
  </defs>
  <rect width="360" height="270" fill="url(#g)" />
  <circle cx="180" cy="135" r="92" fill="none" stroke="#ffffff" stroke-width="6" opacity="0.4" />
  <path d="M 180 135 L 272.0 137.4 A 92 92 0 0 1 223.7 216.0 Z" fill="#ffffff" opacity="0.10" />
  <path d="M 180 135 L 223.9 215.8 A 92 92 0 0 1 131.7 213.3 Z" fill="#ffffff" opacity="0.22" />
  <path d="M 180 135 L 132.0 213.5 A 92 92 0 0 1 88.0 132.4 Z" fill="#ffffff" opacity="0.10" />
  <path d="M 180 135 L 88.0 132.6 A 92 92 0 0 1 136.3 54.0 Z" fill="#ffffff" opacity="0.22" />
  <path d="M 180 135 L 136.1 54.2 A 92 92 0 0 1 228.3 56.7 Z" fill="#ffffff" opacity="0.10" />
  <path d="M 180 135 L 228.0 56.5 A 92 92 0 0 1 272.0 137.6 Z" fill="#ffffff" opacity="0.22" />
  <circle cx="180" cy="135" r="22" fill="#ffffff" opacity="0.85" />
  <rect width="360" height="270" fill="url(#v)" />
</svg>
