<svg xmlns="http://www.w3.org/2000/svg" viewBox="0 0 360 270" width="360" height="270" role="img" aria-label="SYSTEMS, LLM">
  <defs>
    <linearGradient id="g" gradientTransform="rotate(227 0.5 0.5)">
      <stop offset="0" stop-color="hsl(218 72% 56%)" />
      <stop offset="1" stop-color="hsl(266 68% 46%)" />
    </linearGradient>
    <radialGradient id="v" cx="0.3" cy="0.25" r="0.9">
      <stop offset="0" stop-color="#ffffff" stop-opacity="0.16" />
      <stop offset="1" stop-color="#000000" stop-opacity="0.14" />
    </radialGradient>
  </defs>
  <rect width="360" height="270" fill="url(#g)" />
  <rect x="40.0" y="43.0" width="40" height="40" rx="7" fill="#ffffff" opacity="0.55" />
  <rect x="88.0" y="43.0" width="40" height="40" rx="7" fill="#ffffff" opacity="0.14" />
  <rect x="136.0" y="43.0" width="40" height="40" rx="7" fill="#ffffff" opacity="0.14" />
  <rect x="184.0" y="43.0" width="40" height="40" rx="7" fill="#ffffff" opacity="0.55" />
  <rect x="232.0" y="43.0" width="40" height="40" rx="7" fill="#ffffff" opacity="0.55" />
  <rect x="280.0" y="43.0" width="40" height="40" rx="7" fill="#ffffff" opacity="0.14" />
  <rect x="40.0" y="91.0" width="40" height="40" rx="7" fill="#ffffff" opacity="0.14" />
  <rect x="88.0" y="91.0" width="40" height="40" rx="7" fill="#ffffff" opacity="0.55" />
  <rect x="136.0" y="91.0" width="40" height="40" rx="7" fill="#ffffff" opacity="0.55" />
  <rect x="184.0" y="91.0" width="40" height="40" rx="7" fill="#ffffff" opacity="0.55" />
  <rect x="232.0" y="91.0" width="40" height="40" rx="7" fill="#ffffff" opacity="0.55" />
  <rect x="280.0" y="91.0" width="40" height="40" rx="7" fill="#ffffff" opacity="0.14" />
  <rect x="40.0" y="139.0" width="40" height="40" rx="7" fill="#ffffff" opacity="0.14" />
  <rect x="88.0" y="139.0" width="40" height="40" rx="7" fill="#ffffff" opacity="0.55" />
  <rect x="136.0" y="139.0" width="40" height="40" rx="7" fill="#ffffff" opacity="0.14" />
  <rect x="184.0" y="139.0" width="40" height="40" rx="7" fill="#ffffff" opacity="0.14" />
  <rect x="232.0" y="139.0" width="40" height="40" rx="7" fill="#ffffff" opacity="0.14" />
  <rect x="280.0" y="139.0" width="40" height="40" rx="7" fill="#ffffff" opacity="0.55" />
  <rect x="40.0" y="187.0" width="40" height="40" rx="7" fill="#ffffff" opacity="0.14" />
  <rect x="88.0" y="187.0" width="40" height="40" rx="7" fill="#ffffff" opacity="0.14" />
  <rect x="136.0" y="187.0" width="40" height="40" rx="7" fill="#ffffff" opacity="0.55" />
  <rect x="184.0" y="187.0" width="40" height="40" rx="7" fill="#ffffff" opacity="0.14" />
  <rect x="232.0" y="187.0" width="40" height="40" rx="7" fill="#ffffff" opacity="0.55" />
  <rect x="280.0" y="187.0" width="40" height="40" rx="7" fill="#ffffff" opacity="0.14" />
  <rect width="360" height="270" fill="url(#v)" />
</svg>
