<svg xmlns="http://www.w3.org/2000/svg" viewBox="0 0 360 270" width="360" height="270" role="img" aria-label="Efficiency, Seismology">
  <defs>
    <linearGradient id="g" gradientTransform="rotate(317 0.5 0.5)">
      <stop offset="0" stop-color="hsl(227 72% 56%)" />
      <stop offset="1" stop-color="hsl(263 68% 46%)" />
    </linearGradient>
    <radialGradient id="v" cx="0.3" cy="0.25" r="0.9">
      <stop offset="0" stop-color="#ffffff" stop-opacity="0.16" />
      <stop offset="1" stop-color="#000000" stop-opacity="0.14" />
    </radialGradient>
  </defs>
  <rect width="360" height="270" fill="url(#g)" />
  <rect x="30.8" y="116.5" width="8.3" height="37.0" rx="4.1" fill="#ffffff" opacity="0.52" />
  <rect x="44.6" y="85.2" width="8.3" height="99.6" rx="4.1" fill="#ffffff" opacity="0.70" />
  <rect x="58.4" y="113.7" width="8.3" height="42.6" rx="4.1" fill="#ffffff" opacity="0.38" />
  <rect x="72.2" y="117.7" width="8.3" height="34.6" rx="4.1" fill="#ffffff" opacity="0.55" />
  <rect x="86.0" y="82.1" width="8.3" height="105.8" rx="4.1" fill="#ffffff" opacity="0.38" />
  <rect x="99.9" y="114.2" width="8.3" height="41.6" rx="4.1" fill="#ffffff" opacity="0.34" />
  <rect x="113.7" y="106.1" width="8.3" height="57.7" rx="4.1" fill="#ffffff" opacity="0.61" />
  <rect x="127.5" y="101.9" width="8.3" height="66.2" rx="4.1" fill="#ffffff" opacity="0.39" />
  <rect x="141.3" y="109.7" width="8.3" height="50.5" rx="4.1" fill="#ffffff" opacity="0.30" />
  <rect x="155.1" y="110.9" width="8.3" height="48.1" rx="4.1" fill="#ffffff" opacity="0.55" />
  <rect x="168.9" y="106.2" width="8.3" height="57.6" rx="4.1" fill="#ffffff" opacity="0.48" />
  <rect x="182.8" y="126.0" width="8.3" height="18.0" rx="4.1" fill="#ffffff" opacity="0.61" />
  <rect x="196.6" y="123.6" width="8.3" height="22.9" rx="4.1" fill="#ffffff" opacity="0.32" />
  <rect x="210.4" y="123.8" width="8.3" height="22.4" rx="4.1" fill="#ffffff" opacity="0.45" />
  <rect x="224.2" y="106.9" width="8.3" height="56.3" rx="4.1" fill="#ffffff" opacity="0.63" />
  <rect x="238.0" y="108.1" width="8.3" height="53.9" rx="4.1" fill="#ffffff" opacity="0.63" />
  <rect x="251.9" y="88.1" width="8.3" height="93.7" rx="4.1" fill="#ffffff" opacity="0.50" />
  <rect x="265.7" y="90.7" width="8.3" height="88.6" rx="4.1" fill="#ffffff" opacity="0.60" />
  <rect x="279.5" y="86.0" width="8.3" height="97.9" rx="4.1" fill="#ffffff" opacity="0.70" />
  <rect x="293.3" y="99.8" width="8.3" height="70.4" rx="4.1" fill="#ffffff" opacity="0.68" />
  <rect x="307.1" y="97.7" width="8.3" height="74.6" rx="4.1" fill="#ffffff" opacity="0.42" />
  <rect x="320.9" y="89.5" width="8.3" height="90.9" rx="4.1" fill="#ffffff" opacity="0.31" />
  <rect width="360" height="270" fill="url(#v)" />
</svg>
