<svg fill="none" height="96" viewBox="0 0 96 96" width="96" xmlns="http://www.w3.org/2000/svg" xmlns:xlink="http://www.w3.org/1999/xlink"><clipPath id="a"><path d="m0 0h96v96h-96z"/></clipPath><mask id="b" height="96" maskUnits="userSpaceOnUse" width="96" x="0" y="0"><path d="m96 0h-96v96h96z" fill="#fff"/></mask><g clip-path="url(#a)"><g mask="url(#b)"><path d="m96 0h-96v96h96z" fill="#daff33"/><path clip-rule="evenodd" d="m46.3331 27.4668 12.243 33.8335c4.0549 9.1563 9.2098 6.3939 9.2098 6.3939 0 4.0685-3.2659 7.8683-8.0338 7.8683-4.7678 0-7.4679-2.9684-9.5229-7.5796l-12.2487-33.8336c-4.0536-8.8496-9.7663-6.0873-9.8787-6.032.0607-.0018.0929-.0018.0929-.0018l.0083 44.5261h-10.0072l-.0083-34.6309c0-9.3288 8.8962-9.8628 9.9143-9.8934.0004-4.068 3.2587-7.8673 8.0321-7.8673 4.7737 0 8.1385 2.5999 10.1992 7.2168zm21.464-4.2986.0082 44.526s10.0072 0 10.0072-9.8951l-.0082-34.6309z" fill="#052b42" fill-rule="evenodd"/></g></g></svg>