<?xml version="1.0" encoding="UTF-8" standalone="no"?>
<svg xmlns="http://www.w3.org/2000/svg" width="590" height="540">
<path fill="#42AFEB" d="m 276.51869,1.35595 c -10.03747,0 -18.17189,8.07623 -18.17189,18.04188 l 0,0 0,34.72604 c 0,9.95864 8.13442,18.04453 18.17189,18.04453 l 0,0 36.09331,0 c 10.03749,0 18.18515,-8.08589 18.18515,-18.04453 l 0,0 0,-34.72604 c 0,-9.96565 -8.14766,-18.04188 -18.18515,-18.04188 l 0,0 -36.09331,0 z m 88.71565,54.94648 c -7.5396,0 -13.65414,6.17626 -13.65414,13.77442 l 0,0 0,26.49865 c 0,7.60607 6.11454,13.77793 13.65414,13.77793 l 0,0 27.11802,0 c 7.54048,0 13.6497,-6.17186 13.6497,-13.77793 l 0,0 0,-26.49865 c 0,-7.59816 -6.10922,-13.77442 -13.6497,-13.77442 l 0,0 -27.11802,0 z m -168.45685,0 c -7.537,0 -13.65239,6.17626 -13.65239,13.77442 l 0,0 0,26.49865 c 0,7.60607 6.11539,13.77793 13.65239,13.77793 l 0,0 27.11617,0 c 7.53607,0 13.65414,-6.17186 13.65414,-13.77793 l 0,0 0,-26.49865 c 0,-7.59816 -6.11807,-13.77442 -13.65414,-13.77442 l 0,0 -27.11617,0 z m 79.7412,30.3944 c -10.03747,0 -18.17189,8.07184 -18.17189,18.04365 l 0,0 0,34.72341 c 0,9.96391 8.13442,18.04716 18.17189,18.04716 l 0,0 36.09331,0 c 10.03749,0 18.18515,-8.08325 18.18515,-18.04716 l 0,0 0,-34.72341 c 0,-9.97181 -8.14766,-18.04365 -18.18515,-18.04365 l 0,0 -36.09331,0 z m 158.47519,16.27901 c -5.60732,0 -10.15253,4.58561 -10.15253,10.24865 l 0,0 0,19.71251 c 0,5.65072 4.54521,10.23984 10.15253,10.23984 l 0,0 20.17408,0 c 5.60384,0 10.15254,-4.58912 10.15254,-10.23984 l 0,0 0,-19.71251 c 0,-5.66304 -4.5487,-10.24865 -10.15254,-10.24865 l 0,0 -20.17408,0 z m -300.14068,0 c -5.60563,0 -10.15607,4.58561 -10.15607,10.24865 l 0,0 0,19.71251 c 0,5.65072 4.55044,10.23984 10.15607,10.23984 l 0,0 20.16783,0 c 5.6127,0 10.15786,-4.58912 10.15786,-10.23984 l 0,0 0,-19.71251 c 0,-5.66304 -4.54516,-10.24865 -10.15786,-10.24865 l 0,0 -20.16783,0 z m 230.38114,20.74687 c -7.5396,0 -13.65414,6.16658 -13.65414,13.76562 l 0,0 0,26.50744 c 0,7.59993 6.11454,13.76914 13.65414,13.76914 l 0,0 27.11802,0 c 7.54048,0 13.6497,-6.16921 13.6497,-13.76914 l 0,0 0,-26.50744 c 0,-7.59904 -6.10922,-13.76562 -13.6497,-13.76562 l 0,0 -27.11802,0 z m -168.45685,0 c -7.537,0 -13.65239,6.16658 -13.65239,13.76562 l 0,0 0,26.50744 c 0,7.59993 6.11539,13.76914 13.65239,13.76914 l 0,0 27.11617,0 c 7.53607,0 13.65414,-6.16921 13.65414,-13.76914 l 0,0 0,-26.50744 c 0,-7.59904 -6.11807,-13.76562 -13.65414,-13.76562 l 0,0 -27.11617,0 z m 238.21639,33.392 c -5.60732,0 -10.15253,4.58298 -10.15253,10.23898 l 0,0 0,19.71338 c 0,5.65162 4.54521,10.24162 10.15253,10.24162 l 0,0 20.17408,0 c 5.60384,0 10.15254,-4.59 10.15254,-10.24162 l 0,0 0,-19.71338 c 0,-5.656 -4.5487,-10.23898 -10.15254,-10.23898 l 0,0 -20.17408,0 z m -300.14068,0 c -5.60563,0 -10.15607,4.58298 -10.15607,10.23898 l 0,0 0,19.71338 c 0,5.65162 4.55044,10.24162 10.15607,10.24162 l 0,0 20.16783,0 c 5.6127,0 10.15786,-4.59 10.15786,-10.24162 l 0,0 0,-19.71338 c 0,-5.656 -4.54516,-10.23898 -10.15786,-10.23898 l 0,0 -20.16783,0 z m 141.66549,14.18043 c -10.03747,0 -18.17189,8.07973 -18.17189,18.04629 l 0,0 0,34.72603 c 0,9.96479 8.13442,18.03839 18.17189,18.03839 l 0,0 36.09331,0 c 10.03749,0 18.18515,-8.0736 18.18515,-18.03839 l 0,0 0,-34.72603 c 0,-9.96656 -8.14766,-18.04629 -18.18515,-18.04629 l 0,0 -36.09331,0 z m 218.09457,14.83601 c -4.16984,0 -7.54314,3.40801 -7.54314,7.60607 l 0,0 0,14.633 c 0,4.19806 3.3733,7.59993 7.54314,7.59993 l 0,0 14.97393,0 c 4.15747,0 7.52807,-3.40187 7.52807,-7.59993 l 0,0 0,-14.633 c 0,-4.19806 -3.3706,-7.60607 -7.52807,-7.60607 l 0,0 -14.97393,0 z m -414.175738,0 c -4.163688,0 -7.53695,3.40801 -7.53695,7.60607 l 0,0 0,14.633 c 0,4.19806 3.373262,7.59993 7.53695,7.59993 l 0,0 14.967691,0 c 4.16636,0 7.538737,-3.40187 7.538737,-7.59993 l 0,0 0,-14.633 c 0,-4.19806 -3.372377,-7.60607 -7.538737,-7.60607 l 0,0 -14.967691,0 z m 284.796818,5.02414 c -7.5396,0 -13.65414,6.16218 -13.65414,13.76298 l 0,0 0,26.50216 c 0,7.60608 6.11454,13.77353 13.65414,13.77353 l 0,0 27.11802,0 c 7.54048,0 13.6497,-6.16745 13.6497,-13.77353 l 0,0 0,-26.50216 c 0,-7.6008 -6.10922,-13.76298 -13.6497,-13.76298 l 0,0 -27.11802,0 z m -168.45685,0 c -7.537,0 -13.65239,6.16218 -13.65239,13.76298 l 0,0 0,26.50216 c 0,7.60608 6.11539,13.77353 13.65239,13.77353 l 0,0 27.11617,0 c 7.53607,0 13.65414,-6.16745 13.65414,-13.77353 l 0,0 0,-26.50216 c 0,-7.6008 -6.11807,-13.76298 -13.65414,-13.76298 l 0,0 -27.11617,0 z m 238.21639,20.50255 c -5.60732,0 -10.15253,4.59527 -10.15253,10.25655 l 0,0 0,19.70811 c 0,5.66215 4.54521,10.23985 10.15253,10.23985 l 0,0 20.17408,0 c 5.60384,0 10.15254,-4.5777 10.15254,-10.23985 l 0,0 0,-19.70811 c 0,-5.66128 -4.5487,-10.25655 -10.15254,-10.25655 l 0,0 -20.17408,0 z m -300.14068,0 c -5.60563,0 -10.15607,4.59527 -10.15607,10.25655 l 0,0 0,19.70811 c 0,5.66215 4.55044,10.23985 10.15607,10.23985 l 0,0 20.16783,0 c 5.6127,0 10.15786,-4.5777 10.15786,-10.23985 l 0,0 0,-19.70811 c 0,-5.66128 -4.54516,-10.25655 -10.15786,-10.25655 l 0,0 -20.16783,0 z m 359.76006,19.04111 c -4.16984,0 -7.54314,3.40449 -7.54314,7.60255 l 0,0 0,14.63301 c 0,4.19013 3.3733,7.60606 7.54314,7.60606 l 0,0 14.97393,0 c 4.15747,0 7.52807,-3.41593 7.52807,-7.60606 l 0,0 0,-14.63301 c 0,-4.19806 -3.3706,-7.60255 -7.52807,-7.60255 l 0,0 -14.97393,0 z m -414.175738,0 c -4.163688,0 -7.53695,3.40449 -7.53695,7.60255 l 0,0 0,14.63301 c 0,4.19013 3.373262,7.60606 7.53695,7.60606 l 0,0 14.967691,0 c 4.16636,0 7.538737,-3.41593 7.538737,-7.60606 l 0,0 0,-14.63301 c 0,-4.19806 -3.372377,-7.60255 -7.538737,-7.60255 l 0,0 -14.967691,0 z m 463.610728,14.62158 c -3.14309,0 -5.69675,2.56786 -5.69675,5.73685 l 0,0 0,11.03956 c 0,3.15931 2.55366,5.73245 5.69675,5.73245 l 0,0 11.29436,0 c 3.13078,0 5.6826,-2.57314 5.6826,-5.73245 l 0,0 0,-11.03956 c 0,-3.16899 -2.55182,-5.73685 -5.6826,-5.73685 l 0,0 -11.29436,0 z m -509.365304,0 c -3.141356,0 -5.69144,2.56786 -5.69144,5.73685 l 0,0 0,11.03956 c 0,3.15931 2.550084,5.73245 5.69144,5.73245 l 0,0 11.287287,0 c 3.142241,0 5.685242,-2.57314 5.685242,-5.73245 l 0,0 0,-11.03956 c 0,-3.16899 -2.543001,-5.73685 -5.685242,-5.73685 l 0,0 -11.287287,0 z"/>
<path d="m 124.57183,478.1228 0,49.2138 3.98262,0 0,-16.8787 c 2.3706,1.7106 11.98199,8.5797 17.73213,12.6116 4.34295,2.8334 4.2102,3.903 4.26709,4.2671 l 5.31016,0 c 0,-2.5565 -2.89783,-3.8309 -6.16358,-6.0687 -1.98372,-1.3693 -16.68906,-11.6634 -16.68906,-11.6634 0,0 14.31846,-9.4483 16.30977,-10.81 3.25816,-2.2416 5.8791,-3.5085 5.8791,-6.0687 l -5.12051,0 c -0.0455,0.3527 0.17842,1.4299 -4.17227,4.267 -5.43911,3.8347 -14.41328,10.2297 -17.35283,12.3272 l 0,-31.1972 -3.98262,0 z m 37.36075,0 0,49.2138 3.98262,0 0,-49.2138 -3.98262,0 z m 118.9096,0 0,41.3434 0,0.095 0,0.4741 c 0.003,0.6144 -0.10226,1.7296 -0.47412,2.4654 -0.44378,0.7321 -0.61825,1.081 -1.80166,1.1379 l -19.53379,0 c -1.17582,-0.057 -1.35409,-0.4058 -1.80166,-1.1379 -0.27704,-0.55 -0.42861,-1.2782 -0.47412,-1.8965 l 0,-20.1975 0,-0.095 0,-0.3793 c -0.0121,-0.6334 0.0986,-1.8244 0.47412,-2.5603 0.44757,-0.7358 0.61446,-1.0582 1.80166,-1.1378 l 19.53379,0 0,-3.9827 -19.53379,0 c -2.69301,-0.068 -4.69949,1.722 -5.40498,3.4137 -0.78515,1.6765 -0.84204,3.3151 -0.85342,4.2671 l 0,0.6638 0,18.6803 0,0.7586 0,0.6638 0,0.6638 0.0947,0 c 0.091,0.8458 0.28068,1.9116 0.75859,2.9395 0.7055,1.6803 2.71198,3.3871 5.40499,3.3189 l 19.53379,0 0.18965,0 c 2.60577,0 4.50984,-1.6727 5.21533,-3.3189 0.77756,-1.6803 0.84963,-3.3264 0.85342,-4.2671 l 0,-0.7586 0,-41.1537 -3.98262,0 z m -178.64887,14.3185 c -2.19137,0.3156 -3.73799,1.8452 -4.361918,3.3188 -0.785145,1.6765 -0.834454,3.3189 -0.853418,4.2671 l 0,0.7586 0,26.5508 3.982616,0 0,-26.7404 0,-0.095 0,-0.4741 c -0.006,-0.6372 0.10226,-1.8282 0.47412,-2.5603 0.43999,-0.7358 0.52723,-0.971 1.70684,-1.043 l 14.79258,0 0,-3.9827 -14.79258,0 c -0.33663,-0.01 -0.63519,-0.045 -0.94824,0 z m 216.38892,0 c -2.68542,-0.068 -4.68052,1.7296 -5.40498,3.4137 -0.78135,1.6802 -0.84204,3.3226 -0.85342,4.267 l 0,0.6638 0,26.6456 4.07744,0 0,-26.8352 -0.0947,-0.095 0,-0.3793 c 0,-0.6296 0.10226,-1.8168 0.47412,-2.5603 0.4324,-0.7358 0.62584,-0.9785 1.80166,-1.043 l 15.36153,0 0,30.9127 3.98262,0 0,-30.9127 15.55118,0 c 1.17961,0.064 1.26685,0.3034 1.70683,1.043 0.36792,0.7435 0.4855,1.9307 0.47412,2.5603 l 0,0.3793 0,0.095 0,26.8352 3.98262,0 0,-26.6456 0,-0.6638 c -0.0121,-0.9444 -0.068,-2.5906 -0.85342,-4.267 -0.70549,-1.6841 -2.61335,-3.482 -5.31015,-3.4137 l -34.89533,0 z m 95.58284,0 c -2.6968,-0.065 -4.68811,1.7334 -5.40498,3.4137 -0.78135,1.6802 -0.84583,3.3226 -0.85342,4.267 l 0,0.6638 0,26.6456 4.07744,0 0,-26.8352 -0.0947,-0.095 0,-0.3793 c -0.0243,-0.6296 0.11379,-1.8168 0.47412,-2.5603 0.44378,-0.732 0.61067,-1.0696 1.80166,-1.1378 l 18.87003,0.095 c 1.19099,0.065 1.36926,0.3035 1.80166,1.0431 0.37171,0.7434 0.48929,1.9306 0.47412,2.5602 l 0,0.3793 0,0.095 0,26.8353 3.98262,0 0,-26.6456 0,-0.6638 c -0.0121,-0.9445 -0.0683,-2.5906 -0.85342,-4.2671 -0.7017,-1.6803 -2.71956,-3.4782 -5.40498,-3.4137 l -18.87003,0 z m 156.8393,0 c -2.1876,0.313 -3.74794,1.8419 -4.36192,3.3188 -0.79652,1.6765 -0.84204,3.3151 -0.85341,4.2671 l 0,0.7586 0,26.5508 3.98261,0 0,-26.7404 0,-0.095 0,-0.4741 c -0.0182,-0.641 0.0907,-1.8282 0.47413,-2.5603 0.41722,-0.7396 0.61825,-0.9748 1.80166,-1.043 l 14.79258,0 0,-3.9827 -14.79258,0 c -0.33567,-0.01 -0.73056,-0.045 -1.04307,0 z m -568.1868699,0.2843 0,26.5508 c -0.012137,0.1214 0,0.4134 0,0.7586 0.00607,0.9406 0.060991,2.5868 0.8534182,4.2671 0.6979064,1.6461 2.6095632,3.3188 5.2153334,3.3188 l 0.1896485,0 34.8004968,0 c 2.696802,0.068 4.691904,-1.6385 5.404982,-3.3188 0.781352,-1.6803 0.845832,-3.3265 0.853418,-4.2671 l 0,-0.7586 0,-26.5508 -3.982618,0 0,26.7404 0,0.095 0,0.4741 c 0.01214,0.6145 -0.109844,1.7296 -0.474121,2.4655 -0.443778,0.7358 -0.614461,1.081 -1.801661,1.1379 l -15.266703,0 0,-30.9127 -3.982618,0 0,30.9127 -15.5511758,0 c -1.1834066,-0.057 -1.3540902,-0.4021 -1.8016606,-1.1379 -0.3717111,-0.7359 -0.4855002,-1.851 -0.4741213,-2.4655 l 0,-0.4741 0,-0.095 0,-26.7404 -3.9826182,0 z m 59.5496249,0 c -2.188787,0.3041 -3.741295,1.8353 -4.361916,3.3189 -0.79273,1.6764 -0.849625,3.3226 -0.853418,4.267 l 0,0.6638 0,18.3011 0,0.7586 c 0.003,0.9406 0.06099,2.5868 0.853418,4.2671 0.690321,1.6461 2.605771,3.3188 5.215334,3.3188 l 0.189648,0 19.723443,0 c 2.693009,0.068 4.691904,-1.6385 5.404982,-3.3188 0.788938,-1.6803 0.845832,-3.3265 0.853418,-4.2671 l -0.09467,-0.6638 0,-18.3959 0.09467,-0.6638 c -0.0061,-0.9444 -0.06463,-2.5906 -0.853418,-4.267 -0.713078,-1.6955 -2.711973,-3.3948 -5.404982,-3.3189 l -19.723443,0 c -0.336148,-0.01 -0.730374,-0.043 -1.043066,0 z m 116.064875,0 c -2.19024,0.3041 -3.74129,1.8353 -4.36192,3.3189 -0.78893,1.6764 -0.93307,3.3226 -0.94824,4.267 l 0.0947,0.6638 0,18.3011 -0.0947,0.7586 c 0.0152,0.9406 0.15931,2.5868 0.94824,4.2671 0.7017,1.6461 2.59819,3.3188 5.21534,3.3188 l 0.0947,0 19.81827,0 c 2.67404,0.068 4.59708,-1.6385 5.31016,-3.3188 0.78514,-1.6803 0.84203,-3.3265 0.85341,-4.2671 l 0,-0.6638 0,-18.3959 0,-0.6638 c -0.0121,-0.9444 -0.0683,-2.5906 -0.85341,-4.267 -0.71308,-1.6955 -2.63612,-3.3948 -5.31016,-3.3189 l -19.81827,0 c -0.33615,-0.01 -0.63534,-0.043 -0.94824,0 z m 34.51602,0 0,3.9826 26.55079,0 c 1.18341,0.065 1.36547,0.3073 1.80166,1.0431 0.36792,0.7358 0.49309,1.942 0.47412,2.5602 l 0,0.4742 0,0.095 0,18.5856 0,0.095 0,0.4741 c 0.0121,0.6144 -0.1062,1.7296 -0.47412,2.4654 -0.43619,0.7358 -0.61825,1.0772 -1.80166,1.1379 l -21.24063,0 c -1.3465,-0.057 -1.44512,-0.3755 -1.80166,-0.8534 -0.30723,-0.5083 -0.47412,-1.4262 -0.47412,-1.8965 l 0,-0.2843 0,-0.095 0,-7.3015 0,-0.095 0,-0.4742 c 0,-0.6182 0.0986,-1.8206 0.47412,-2.5602 0.4324,-0.7358 0.61446,-0.9748 1.80166,-1.0431 l 21.24063,0 0,-3.9826 -21.24063,0 c -2.6968,-0.068 -4.68052,1.6386 -5.40498,3.3189 -0.78514,1.684 -0.84583,3.3188 -0.85342,4.267 l 0,0.7586 0,6.9222 0,0.569 c 0.006,0.842 0.10256,2.3592 0.94824,3.8877 0.80411,1.5514 2.77646,2.9093 5.31016,2.8448 l 21.24063,0 0.18965,0 c 2.61715,0 4.52122,-1.6765 5.21533,-3.3189 0.78515,-1.6841 0.84584,-3.3264 0.85342,-4.2671 l 0,-0.7586 0,-18.301 0,-0.6638 c -0.006,-0.9445 -0.0683,-2.5906 -0.85342,-4.2671 -0.71307,-1.6917 -2.71576,-3.3909 -5.40498,-3.3188 l -26.55079,0 z m 154.75317,0 0,3.9826 26.64561,0 c 1.16824,0.065 1.26685,0.3073 1.70684,1.0431 0.37171,0.7358 0.47412,1.9458 0.47412,2.5602 l 0,0.4742 0,0.095 0,18.5856 0,0.095 0,0.4741 c 0,0.6144 -0.10226,1.7296 -0.47412,2.4654 -0.43999,0.7358 -0.5386,1.0772 -1.70684,1.1379 l -21.33545,0 c -1.1872,-0.061 -1.35788,-0.4021 -1.80166,-1.1379 -0.36413,-0.7396 -0.47412,-1.851 -0.47412,-2.4654 l 0,-0.4741 0,-0.095 0,-6.2584 0,-0.095 0,-0.095 0,-0.3793 c -0.0121,-0.6182 0.10984,-1.8206 0.47412,-2.5602 0.44378,-0.7358 0.61446,-0.9748 1.80166,-1.0431 l 21.33545,0 0,-3.9826 -21.33545,0 c -2.68542,-0.068 -4.69191,1.6386 -5.40498,3.3189 -0.77377,1.684 -0.85342,3.3188 -0.85342,4.267 l 0,0.7586 0,5.8791 0,0.7586 c 0.006,0.9407 0.0795,2.583 0.85342,4.2671 0.71307,1.6765 2.71956,3.3871 5.40498,3.3189 l 21.33545,0 0.0947,0 c 2.60577,0 4.52122,-1.6765 5.21533,-3.3189 0.78514,-1.6841 0.84583,-3.3264 0.85342,-4.2671 l 0,-0.6637 0,-18.3959 0,-0.6638 c -0.006,-0.9482 -0.0683,-2.5868 -0.85342,-4.2671 -0.7017,-1.6917 -2.62474,-3.3909 -5.31016,-3.3188 l -26.64561,0 z m 79.93684,0 0,3.9826 26.55079,0 c 1.17582,0.065 1.36167,0.3073 1.80166,1.0431 0.37171,0.7358 0.4855,1.9458 0.47412,2.5602 l 0,0.4742 0,0.095 0,18.5856 0,0.095 0,0.4741 c 0.0121,0.6144 -0.10226,1.7296 -0.47412,2.4654 -0.43999,0.7358 -0.62584,1.0772 -1.80166,1.1379 l -21.33546,0 c -1.33512,-0.057 -1.46029,-0.3755 -1.80166,-0.8534 -0.31482,-0.5083 -0.3793,-1.4262 -0.3793,-1.8965 l 0,-0.2843 0,-0.095 0,-7.3015 0,-0.095 0,-0.095 0,-0.3793 c 0,-0.6183 0.0874,-1.8206 0.47413,-2.5603 0.4286,-0.7358 0.51963,-0.9748 1.70683,-1.043 l 21.33546,0 0,-3.9826 -21.33546,0 c -2.6968,-0.068 -4.59708,1.6385 -5.31016,3.3188 -0.78514,1.6841 -0.84583,3.3189 -0.85341,4.2671 l 0,0.7586 0,6.9222 0,0.5689 c 0,0.842 0.10225,2.3554 0.94824,3.8878 0.80031,1.5437 2.77645,2.9092 5.31016,2.8447 l 21.24063,0 0.18964,0 c 2.5944,0 4.52122,-1.6765 5.21534,-3.3188 0.78135,-1.6841 0.84583,-3.3265 0.85342,-4.2671 l 0,-0.6638 0,-18.3959 0,-0.6638 c -0.009,-0.9482 -0.0722,-2.5868 -0.85342,-4.267 -0.71687,-1.6917 -2.71956,-3.391 -5.40498,-3.3189 l -26.55079,0 z m 43.4295,0 c -2.19127,0.3116 -3.7446,1.8387 -4.36191,3.3189 -0.48171,1.0316 -0.67136,1.9988 -0.7586,2.8447 l -0.0947,0 0,0.7586 0,0.6637 0,0.6638 0,16.1201 0,0.6638 c 0.0152,0.9482 0.0719,2.4958 0.85342,4.1723 0.6979,1.6537 2.60956,3.4136 5.21533,3.4136 l 0.18965,0 20.57686,0 0,-3.9826 -20.57686,0 c -1.17582,-0.065 -1.35788,-0.402 -1.80166,-1.1379 -0.37171,-0.7358 -0.48171,-1.832 -0.47412,-2.4654 l 0,-0.4741 0,-0.095 0,-17.4477 c 0.0495,-0.622 0.2124,-1.4337 0.47412,-1.9913 0.44378,-0.732 0.62584,-0.9748 1.80166,-1.043 l 21.24063,0 c 1.1872,0.068 1.35788,0.311 1.80166,1.043 0.37171,0.7435 0.48171,1.942 0.47412,2.5603 l 0,0.4741 0,0.095 0,29.9644 0,0.095 0,0.4741 c 0.006,0.6259 -0.10256,1.8245 -0.47412,2.5603 -0.44378,0.732 -0.61446,0.9786 -1.80166,1.0431 l -19.05967,0 0,3.9826 19.05967,0 0.18965,0 c 2.60198,0 4.50984,-1.6765 5.21533,-3.3189 0.78135,-1.6878 0.83825,-3.3226 0.85342,-4.2671 l 0,-0.6637 0,-29.7748 0,-0.6638 c 0,-0.9445 -0.0722,-2.5868 -0.85342,-4.2671 -0.71687,-1.6917 -2.71197,-3.3909 -5.40498,-3.3188 l -21.24063,0 c -0.33663,-0.01 -0.73004,-0.045 -1.04307,0 z m 40.30031,0 c -2.18609,0.3066 -3.72801,1.8387 -4.36192,3.3189 -0.77377,1.6764 -0.84204,3.3226 -0.85342,4.267 l 0,0.6638 0,18.3011 0,0.7586 c 0,0.9406 0.0798,2.583 0.85342,4.2671 0.71687,1.6765 2.72335,3.3871 5.40498,3.3188 l 26.55079,0 0,-3.9826 -26.55079,0 c -1.1834,-0.061 -1.35788,-0.402 -1.80166,-1.1379 -0.36033,-0.7358 -0.48929,-1.851 -0.47412,-2.4654 l 0,-0.4741 0,-0.095 0,-18.5856 0,-0.095 0,-0.095 0,-0.3793 c -0.0152,-0.6107 0.11379,-1.8168 0.47412,-2.5603 0.44378,-0.7358 0.61826,-0.9785 1.80166,-1.043 l 21.24063,0 c 1.17582,0.065 1.35789,0.3072 1.80166,1.043 0.31861,0.6524 0.45137,1.6196 0.47412,2.2758 l 0,7.1118 0,0.095 0,0.095 0,0.1896 c 0.006,0.3869 -0.1062,1.1114 -0.37929,1.5172 -0.29191,0.3755 -0.4893,0.7055 -1.89649,0.7586 l -21.24063,0 0,4.0775 21.24063,0 0.18965,0 c 2.39716,0 4.27847,-1.21 5.12051,-2.6551 0.87238,-1.4527 0.94066,-2.9054 0.94824,-3.6982 l 0,-0.5689 0,-5.9739 0,-0.6638 c -0.006,-0.9482 -0.0683,-2.5868 -0.85342,-4.2671 -0.70549,-1.6917 -2.72335,-3.3909 -5.40498,-3.3188 l -21.24063,0 c -0.33521,-0.01 -0.73077,-0.044 -1.04306,0 z m -467.957649,3.9826 19.723443,0 c 1.172028,0.064 1.365469,0.3035 1.801661,1.0431 0.360332,0.7358 0.481707,1.942 0.474121,2.5602 l -0.09467,0.4742 0,0.095 0,18.5856 0,0.095 0.09467,0.4741 c 0.0061,0.6144 -0.113789,1.7296 -0.474121,2.4654 -0.436192,0.7358 -0.629633,1.081 -1.801661,1.1379 l -19.723443,0 c -1.179613,-0.057 -1.361676,-0.4021 -1.80166,-1.1379 -0.364125,-0.7358 -0.4855,-1.851 -0.474121,-2.4654 l 0,-0.4741 0,-0.095 0,-18.5856 0,-0.095 0,-0.4742 c -0.01214,-0.6182 0.109844,-1.8244 0.474121,-2.5602 0.439984,-0.7396 0.614461,-0.9786 1.80166,-1.0431 z m 115.970049,0 19.81827,0 c 1.17203,0.064 1.26685,0.3035 1.70684,1.0431 0.37171,0.7358 0.4817,1.942 0.47412,2.5602 l 0,0.4742 0,0.095 0,18.5856 0,0.095 0,0.4741 c 0.006,0.6144 -0.10226,1.7296 -0.47412,2.4654 -0.43999,0.7358 -0.53481,1.081 -1.70684,1.1379 l -19.81827,0 c -1.1834,-0.057 -1.26306,-0.4021 -1.70683,-1.1379 -0.36034,-0.7358 -0.4855,-1.851 -0.47413,-2.4654 l 0,-0.4741 0,-0.095 0,-18.5856 0,-0.095 0,-0.4742 c -0.0121,-0.6182 0.11379,-1.8244 0.47413,-2.5602 0.44377,-0.7396 0.52343,-0.9786 1.70683,-1.0431 z"/>
<path d="m 581.05128,330.18773 c -4.41881,-3.55781 -12.79369,-4.35054 -17.63731,-4.50605 -2.23406,-0.0607 -3.73228,0 -3.73228,0 l -113.71703,0 c 0,0 -3.44781,-0.26551 -7.66559,0 -4.10779,0.26551 -8.94382,1.03548 -11.97061,3.09127 -7.69215,5.18499 -8.65935,13.65469 -8.65935,21.33925 l 0,97.62724 28.29555,0 0,-85.71353 c 0,-12.3006 10.53687,-10.95409 10.53687,-10.95409 l 32.84712,0 0,96.55004 26.96801,0 0,-96.55004 33.6133,0 c 9.05003,0 9.72138,7.87041 9.75173,9.63414 l 0,0.36792 0,86.66556 28.31831,0 0,-96.66762 0,-0.68653 c -0.0416,-3.01162 -0.58791,-15.08464 -6.94872,-20.19756 m -239.26433,-4.50605 c -4.11537,0.26551 -8.9514,1.03548 -11.98578,3.09127 -7.69214,5.18499 -8.64797,13.65469 -8.64797,21.33925 l 0,97.62724 28.29176,0 0,-85.71353 c 0,-12.3006 10.54066,-10.95409 10.54066,-10.95409 l 37.53523,0 0,-25.39014 -48.07589,0 c 0,0 -3.44781,-0.26551 -7.65801,0 m -72.10814,85.60353 c 0,12.29681 -10.53308,10.95789 -10.53308,10.95789 l -38.64278,0 c -9.03485,0 -9.71759,-7.88179 -9.74793,-9.65311 l 0,-0.35274 0,-86.68453 -28.30693,0 0,96.69038 0,0.68653 c 0.034,2.98886 0.58411,15.07705 6.94493,20.19377 4.41501,3.55401 12.7861,4.35054 17.62972,4.49846 2.23785,0.0719 3.73228,0 3.73228,0 l 58.92379,0 c 0,0 3.4516,0.2731 7.658,0 4.11537,-0.26186 8.94762,-1.04306 11.98199,-3.09127 7.68456,-5.19637 8.65935,-13.64331 8.65935,-21.33545 l 0,-97.64242 -28.29934,0 0,85.73249 z m -140.16541,36.33665 28.29556,0 0,-173.62698 -28.29556,0 0,173.62698 z m -25.12084,-55.71114 c 0,0 0.25792,-8.97037 -5.344292,-12.84299 -5.158439,-3.53505 -12.573695,-3.53505 -12.573695,-3.53505 l -51.527494,0 c 0,0 -7.756623,0.51964 -7.756623,-7.75662 l 0,-8.69349 c 0,0 -0.682735,-9.18278 9.178986,-9.18278 l 66.820748,0 0,-24.34707 -72.294003,0 c 0,0 -11.978198,-0.16325 -16.734582,0.96341 C 7.8652753,328.00677 1,331.23079 1,345.55305 l 0,34.55016 c 0,18.76382 17.887645,16.79527 17.887645,16.79527 l 48.030376,0 c 11.382702,0 10.574799,8.40522 10.574799,8.40522 l 0,8.3066 c 0,10.98065 -12.444733,9.23209 -12.444733,9.23209 l -64.048087,0 0,24.77947 82.963627,0 c 0,0 10.863065,0.37171 15.858406,-5.39739 5.002927,-5.76911 4.570527,-15.24016 4.570527,-15.24016 l 0,-35.07359 z"/>
</svg>
