<?xml version="1.0" encoding="UTF-8" standalone="no"?>
<svg
   fill="none"
   height="24"
   viewBox="0 0 24 24"
   width="24"
   version="1.1"
   id="svg3"
   sodipodi:docname="chemistry-flask.svg"
   inkscape:version="1.3 (0e150ed, 2023-07-21)"
   inkscape:export-filename="chemistry-flask.png"
   inkscape:export-xdpi="480"
   inkscape:export-ydpi="480"
   xmlns:inkscape="http://www.inkscape.org/namespaces/inkscape"
   xmlns:sodipodi="http://sodipodi.sourceforge.net/DTD/sodipodi-0.dtd"
   xmlns="http://www.w3.org/2000/svg"
   xmlns:svg="http://www.w3.org/2000/svg">
  <defs
     id="defs3" />
  <sodipodi:namedview
     id="namedview3"
     pagecolor="#ffffff"
     bordercolor="#666666"
     borderopacity="1.0"
     inkscape:showpageshadow="2"
     inkscape:pageopacity="0.0"
     inkscape:pagecheckerboard="0"
     inkscape:deskcolor="#d1d1d1"
     inkscape:zoom="36.041667"
     inkscape:cx="12.013873"
     inkscape:cy="12"
     inkscape:window-width="1392"
     inkscape:window-height="1212"
     inkscape:window-x="809"
     inkscape:window-y="126"
     inkscape:window-maximized="0"
     inkscape:current-layer="layer1" />
  <g
     inkscape:groupmode="layer"
     id="layer1"
     inkscape:label="Layer 1">
    <path
       clip-rule="evenodd"
       d="M 15,3 V 7.58152 C 17.9318,8.76829 20,11.6426 20,15 20,19.4183 16.4183,23 12,23 7.58172,23 4,19.4183 4,15 4,11.6426 6.06817,8.76829 9,7.58152 V 3 H 8 C 7.44772,3 7,2.55228 7,2 7,1.44772 7.44772,1 8,1 h 8 c 0.5523,0 1,0.44772 1,1 0,0.55228 -0.4477,1 -1,1 z M 9.75043,9.43539 10.3752,9.18249 C 10.7529,9.02962 11,8.66295 11,8.25555 V 3 h 2 v 5.25555 c 0,0.4074 0.2471,0.77407 0.6248,0.92694 l 0.6248,0.2529 C 15.1075,9.78268 15.8661,10.3221 16.4726,11 H 7.52739 C 8.13388,10.3221 8.89249,9.78268 9.75043,9.43539 Z M 6.3414,13 C 6.12025,13.6258 6,14.2991 6,15 c 0,3.3137 2.68629,6 6,6 3.3137,0 6,-2.6863 6,-6 0,-0.7009 -0.1202,-1.3742 -0.3414,-2 z"
       fill-rule="evenodd"
       id="path4"
       style="fill:#0f0f0f" />
    <path
       style="display:inline;fill:#caa3db;stroke:none;stroke-width:1px;stroke-linecap:butt;stroke-linejoin:miter;stroke-opacity:1;fill-opacity:1"
       d="m 5.6878613,12.346821 c 0.1017341,-0.05549 0.190027,-0.153677 0.3052023,-0.166474 0.0495,-0.0055 -0.04118,0.09102 -0.055491,0.138728 -0.013551,0.04517 -0.018497,0.09249 -0.027746,0.138728 -0.018497,0.09249 -0.032616,0.185956 -0.055491,0.277457 -0.01633,0.06532 -0.041384,0.128384 -0.055491,0.19422 -0.013703,0.06395 -0.018497,0.12948 -0.027746,0.194219 -0.038291,0.268035 -0.019634,0.129328 -0.055491,0.416185 -0.032459,0.259671 -0.067959,0.518736 -0.1109826,0.776879 -0.035512,0.213069 -0.071166,0.425793 -0.1109827,0.63815 -0.00869,0.04635 -0.023053,0.0918 -0.027746,0.138729 -0.0046,0.04601 0.00511,0.09277 0,0.138728 -0.00421,0.0379 -0.023535,0.07308 -0.027746,0.110983 -0.00511,0.04596 0,0.09248 0,0.138728 0,0.07399 0,0.147977 0,0.221965 0,0.08324 0,0.166474 0,0.249711 0,0.03699 -0.00459,0.07427 0,0.110983 0.012975,0.103797 0.032456,0.102079 0.055491,0.19422 0.011438,0.04575 0.017516,0.09269 0.027746,0.138728 0.00175,0.0079 0.053738,0.214073 0.055491,0.221965 0.01023,0.04604 0.014195,0.09356 0.027746,0.138729 0.014311,0.0477 0.039742,0.09148 0.055491,0.138728 0.026964,0.08089 0.028527,0.168819 0.055491,0.249711 0.013079,0.03924 0.040969,0.07226 0.055491,0.110982 0.053345,0.142254 0.00275,0.0915 0.055491,0.249711 0.026159,0.07848 0.081937,0.144511 0.1109827,0.221966 0.013389,0.03571 0.014356,0.07528 0.027746,0.110982 0.1450349,0.38676 -0.040874,-0.205857 0.1109827,0.249711 0.075149,0.225447 -0.032553,-0.01082 0.083237,0.249711 0.016798,0.0378 0.036994,0.07399 0.055491,0.110983 0.018497,0.03699 0.034971,0.07507 0.055491,0.110983 0.033089,0.05791 0.081157,0.106822 0.1109827,0.166474 0.013079,0.02616 0.014666,0.05708 0.027746,0.08324 0.014913,0.02982 0.040578,0.05341 0.055491,0.08324 0.013079,0.02616 0.012698,0.05816 0.027746,0.08324 0.013459,0.02243 0.039796,0.03456 0.055491,0.05549 0.012408,0.01654 0.017106,0.03776 0.027746,0.05549 0.017156,0.02859 0.038335,0.05464 0.055491,0.08324 0.051868,0.08645 0.00142,0.03646 0.083237,0.138729 0.032683,0.04085 0.073988,0.07399 0.1109826,0.110982 0.027746,0.02775 0.053093,0.05812 0.083237,0.08324 0.051234,0.0427 0.1122043,0.07222 0.166474,0.110983 0.037629,0.02688 0.074873,0.05435 0.1109827,0.08324 0.141155,0.112924 -0.3063549,-0.176491 0.166474,0.138728 0.034414,0.02294 0.076568,0.03255 0.1109826,0.05549 0.021765,0.01451 0.035065,0.03915 0.055491,0.05549 0.026039,0.02083 0.057198,0.03466 0.083237,0.05549 0.040853,0.03268 0.069129,0.07959 0.1109827,0.110983 0.033089,0.02482 0.076568,0.03255 0.1109827,0.05549 0.010883,0.0073 0.016863,0.02049 0.027746,0.02775 0.017207,0.01147 0.040868,0.01312 0.055491,0.02775 0.067389,0.06739 -0.00825,0.04074 0.055491,0.08324 0.017207,0.01147 0.036994,0.0185 0.055491,0.02775 0.018497,0.0185 0.034564,0.0398 0.055491,0.05549 0.016544,0.01241 0.038947,0.01534 0.055491,0.02774 0.020927,0.0157 0.034564,0.0398 0.055491,0.05549 0.016544,0.01241 0.039604,0.01451 0.055491,0.02774 0.060287,0.05024 0.1061866,0.116235 0.166474,0.166474 0.086694,0.07224 0.1837592,0.131755 0.2774567,0.19422 0.055491,0.03699 0.1085688,0.07789 0.166474,0.110983 0.071822,0.04104 0.1479768,0.07399 0.2219653,0.110982 0.110476,0.05524 0.2200907,0.116315 0.3329479,0.166474 0.071402,0.06278 0.1690657,0.04867 0.249711,0.08324 0.03065,0.01314 0.052587,0.04236 0.083237,0.05549 0.03505,0.01502 0.074317,0.01727 0.1109827,0.02774 0.028121,0.008 0.055491,0.0185 0.083237,0.02775 0.055491,0.0185 0.1102317,0.03942 0.1664737,0.05549 0.03667,0.01048 0.07432,0.01727 0.110983,0.02775 0.07906,0.02259 0.107482,0.0431 0.194219,0.05549 0.02747,0.0039 0.05577,-0.0039 0.08324,0 0.03775,0.0054 0.07315,0.02302 0.110983,0.02775 0.03671,0.0046 0.07422,-0.0041 0.110983,0 0.09374,0.01041 0.183465,0.04766 0.277456,0.05549 0.06452,0.0054 0.129671,-0.005 0.19422,0 1.59e-4,1.2e-5 0.331837,0.05532 0.332948,0.05549 0.184749,0.02842 0.370543,0.05251 0.554913,0.08324 0.04652,0.0078 0.09176,0.02348 0.138728,0.02775 0.05526,0.005 0.110983,0 0.166474,0 0.037,0 0.07428,0.0046 0.110983,0 0.03784,-0.0047 0.07314,-0.02302 0.110983,-0.02775 0.03671,-0.0046 0.07436,0.0052 0.110982,0 0.09764,-0.01395 0.07856,-0.03928 0.166474,-0.08324 0.02616,-0.01308 0.05636,-0.01622 0.08324,-0.02775 0.03802,-0.01629 0.07226,-0.04097 0.110983,-0.05549 0.03571,-0.01339 0.07593,-0.01272 0.110983,-0.02774 0.03065,-0.01314 0.05259,-0.04236 0.08324,-0.05549 0.03505,-0.01502 0.07399,-0.0185 0.110982,-0.02775 0.06179,-0.01545 0.191005,-0.04962 0.249711,-0.05549 0.04601,-0.0046 0.09249,0 0.138729,0 0.04624,-0.0092 0.0918,-0.02305 0.138728,-0.02775 0.09203,-0.0092 0.185537,0.01021 0.277457,0 0.0379,-0.0042 0.07399,-0.0185 0.110982,-0.02775 0.037,-0.0092 0.07432,-0.01727 0.110983,-0.02774 0.09526,-0.02722 0.09557,-0.03391 0.19422,-0.08324 0.09248,-0.04624 0.183896,-0.0947 0.277456,-0.138729 0.607895,-0.260526 -0.144954,0.07248 0.332948,-0.166474 0.04455,-0.02227 0.09418,-0.03322 0.138729,-0.05549 0.04823,-0.02412 0.09138,-0.05741 0.138728,-0.08324 0.05447,-0.02971 0.112008,-0.05353 0.166474,-0.08324 0.04734,-0.02582 0.09139,-0.05741 0.138728,-0.08324 0.05447,-0.02971 0.112009,-0.05353 0.166474,-0.08324 0.09469,-0.05165 0.184971,-0.110983 0.277457,-0.166474 0.04624,-0.02775 0.09248,-0.05549 0.138728,-0.08324 0.04624,-0.02775 0.09616,-0.05013 0.138729,-0.08324 0.0413,-0.03212 0.07399,-0.07399 0.110982,-0.110983 0.04624,-0.04624 0.09498,-0.09012 0.138729,-0.138728 0.03961,-0.04402 0.07348,-0.09289 0.110982,-0.138728 0.04574,-0.05591 0.09624,-0.108057 0.138728,-0.166474 0.03172,-0.04361 0.05231,-0.09455 0.08324,-0.138729 0.06792,-0.09703 0.156267,-0.178909 0.221966,-0.277456 0.04136,-0.06204 0.0719,-0.130717 0.110982,-0.19422 0.343813,-0.558696 -0.108253,0.190126 0.221966,-0.305202 0.07088,-0.106323 0.136614,-0.245482 0.194219,-0.360694 0.02775,-0.05549 0.05757,-0.109994 0.08324,-0.166474 0.02061,-0.04534 0.03322,-0.09418 0.05549,-0.138728 0.02412,-0.04824 0.05912,-0.09049 0.08324,-0.138729 0.04455,-0.08909 0.06643,-0.188362 0.110982,-0.277456 0.01491,-0.02983 0.04058,-0.05341 0.05549,-0.08324 0.02227,-0.04455 0.03699,-0.09249 0.05549,-0.138729 0.0185,-0.04624 0.03974,-0.09148 0.05549,-0.138728 0.01206,-0.03618 0.0185,-0.07399 0.02775,-0.110983 0.05015,-0.200579 0.077,-0.406528 0.110983,-0.610404 0.0092,-0.05549 0.01768,-0.111125 0.02774,-0.166474 0.01525,-0.08388 0.04806,-0.223444 0.05549,-0.305202 0.0042,-0.04605 -0.0046,-0.09272 0,-0.138729 0.0047,-0.04692 0.02348,-0.09176 0.02774,-0.138728 0.005,-0.05526 -0.0046,-0.111174 0,-0.166474 0.0047,-0.05606 0.02307,-0.110412 0.02775,-0.166474 0.0046,-0.0553 0,-0.110983 0,-0.166474 0,-0.04624 0.0042,-0.09268 0,-0.138728 -0.0051,-0.05603 -0.02117,-0.110603 -0.02775,-0.166474 -0.01193,-0.101454 -0.01581,-0.203749 -0.02774,-0.305203 -0.0066,-0.05587 -0.01768,-0.111124 -0.02775,-0.166474 -0.0084,-0.0464 -0.02305,-0.0918 -0.02775,-0.138728 -0.0046,-0.04601 0.0051,-0.09277 0,-0.138728 -0.0084,-0.0758 -0.04603,-0.146289 -0.05549,-0.221966 -0.0046,-0.03671 0,-0.07399 0,-0.110982 -0.0092,-0.037 -0.02235,-0.07323 -0.02775,-0.110983 -0.0078,-0.05493 0.0078,-0.11154 0,-0.166474 -0.01078,-0.0755 -0.03895,-0.147516 -0.05549,-0.221965 -0.01023,-0.04604 -0.01419,-0.09356 -0.02775,-0.138729 -0.03796,-0.126533 -0.06053,-0.1362 -0.110982,-0.249711 -0.02023,-0.04551 -0.03847,-0.09192 -0.05549,-0.138728 -0.01999,-0.05497 -0.03129,-0.113224 -0.05549,-0.166474 -0.05758,-0.126674 -0.09328,-0.139924 -0.166474,-0.249711 -0.02991,-0.04487 -0.05013,-0.09616 -0.08324,-0.138728 -0.03212,-0.0413 -0.07399,-0.07399 -0.110983,-0.110983 -0.02774,-0.02775 -0.05549,-0.05549 -0.08324,-0.08324 -0.03699,-0.03699 -0.07399,-0.07399 -0.110982,-0.110983 -0.02775,-0.02774 -0.05344,-0.0577 -0.08324,-0.08324 -0.291506,-0.249861 0.06225,0.06428 -0.221966,-0.138728 -0.03193,-0.02281 -0.04917,-0.06377 -0.08324,-0.08324 -0.03311,-0.01892 -0.07528,-0.01436 -0.110982,-0.02775 -0.236763,-0.08879 -0.0013,-0.02812 -0.19422,-0.08324 -0.04991,-0.01426 -0.2057,-0.05109 -0.249711,-0.05549 -0.04601,-0.0046 -0.09248,0 -0.138728,0 -0.110983,0 -0.221965,0 -0.332948,0 -0.295954,0 -0.591908,0 -0.887861,0 -0.07399,0 -0.147977,0 -0.221966,0 -0.06474,0 -0.12967,-0.005 -0.194219,0 -0.05609,0.0043 -0.110412,0.02307 -0.166474,0.02775 -0.0553,0.0046 -0.110983,0 -0.166474,0 -0.04624,0 -0.09249,0 -0.138729,0 -0.04624,0 -0.09272,0.0046 -0.138728,0 -0.04692,-0.0047 -0.0918,-0.02305 -0.138728,-0.02775 -0.04601,-0.0046 -0.09265,0.0038 -0.138729,0 -0.06517,-0.0054 -0.128988,-0.02309 -0.194219,-0.02774 -0.06458,-0.0046 -0.129671,0.005 -0.19422,0 -0.05609,-0.0043 -0.110983,-0.0185 -0.166474,-0.02775 -0.07399,-0.0092 -0.147566,-0.02279 -0.221965,-0.02775 -0.0646,-0.0043 -0.129623,0.0043 -0.19422,0 -0.09355,-0.0062 -0.31769,-0.04318 -0.416185,-0.05549 -0.267601,-0.03345 -0.536639,-0.05346 -0.804624,-0.08324 -0.07411,-0.0082 -0.14753,-0.02337 -0.221965,-0.02775 -0.166187,-0.0098 -0.333205,0.0092 -0.499422,0 -0.08362,-0.0046 -0.166422,-0.01898 -0.249711,-0.02774 -0.671093,-0.07064 0.115602,0.0058 -0.554914,-0.02775 -0.09283,-0.0046 -0.184638,-0.02286 -0.2774561,-0.02775 -0.083122,-0.0044 -0.1664739,0 -0.2497109,0 -0.073989,0 -0.1479769,0 -0.2219654,0 -0.083237,0 -0.166636,-0.0052 -0.2497109,0 -0.06527,0.0041 -0.1289887,0.02309 -0.1942197,0.02775 -0.064575,0.0046 -0.1296705,-0.005 -0.1942196,0 -0.056091,0.0043 -0.1111247,0.01768 -0.166474,0.02775 -0.092796,0.01687 -0.1846609,0.03862 -0.2774567,0.05549 -0.5393982,0.09807 0.1588304,-0.02381 -0.3052023,0.02775 -0.037899,0.0042 -0.073988,0.0185 -0.1109827,0.02775 -0.036994,0.0092 -0.073988,0.0185 -0.1109826,0.02775 -0.036994,0.0092 -0.073233,0.02235 -0.1109827,0.02775 -0.064089,0.0092 -0.1299797,-0.008 -0.1942196,0 -0.037838,0.0047 -0.073233,0.02235 -0.1109827,0.02774 -0.027467,0.0039 -0.05577,-0.0039 -0.083237,0 -0.037749,0.0054 -0.073144,0.02302 -0.1109826,0.02775 -0.036709,0.0046 -0.07436,-0.0052 -0.1109827,0 -0.028953,0.0041 -0.054284,0.02361 -0.083237,0.02775 -0.036622,0.0052 -0.074274,-0.0046 -0.1109827,0 -0.037838,0.0047 -0.073988,0.0185 -0.1109826,0.02774 -0.099685,0.02492 -0.1705535,0.04577 -0.2774567,0.05549 -0.082895,0.0075 -0.1673105,-0.01177 -0.2497109,0 -0.028953,0.0041 -0.054559,0.02201 -0.083237,0.02774 -0.036276,0.0073 -0.073988,0 -0.1109827,0 -0.00925,0 -0.018972,-0.0029 -0.027746,0 -0.019619,0.0065 -0.035872,0.02121 -0.055491,0.02775 -0.00877,0.0029 -0.019474,-0.0041 -0.027746,0 -0.011699,0.0058 -0.018497,0.0185 -0.027746,0.02775 -0.00925,0.0092 -0.021896,0.01605 -0.027746,0.02775 -0.00414,0.0083 0.00654,0.02121 0,0.02775 -0.00654,0.0065 -0.021206,-0.0065 -0.027746,0 -0.00654,0.0065 0.00414,0.01947 0,0.02775 -0.079559,0.159118 -0.166474,0.314451 -0.249711,0.471676"
       id="path6" />
  </g>
  <path
     d="m 10,17 c 0.5523,0 1,-0.4477 1,-1 0,-0.5523 -0.4477,-1 -1,-1 -0.55228,0 -1,0.4477 -1,1 0,0.5523 0.44772,1 1,1 z"
     id="path1"
     style="display:none;fill:#0f0f0f"
     sodipodi:insensitive="true" />
  <path
     d="m 15,18 c 0,0.5523 -0.4477,1 -1,1 -0.5523,0 -1,-0.4477 -1,-1 0,-0.5523 0.4477,-1 1,-1 0.5523,0 1,0.4477 1,1 z"
     id="path2"
     style="display:none;fill:#0f0f0f"
     sodipodi:insensitive="true" />
  <path
     clip-rule="evenodd"
     d="M 15,3 V 7.58152 C 17.9318,8.76829 20,11.6426 20,15 20,19.4183 16.4183,23 12,23 7.58172,23 4,19.4183 4,15 4,11.6426 6.06817,8.76829 9,7.58152 V 3 H 8 C 7.44772,3 7,2.55228 7,2 7,1.44772 7.44772,1 8,1 h 8 c 0.5523,0 1,0.44772 1,1 0,0.55228 -0.4477,1 -1,1 z M 9.75043,9.43539 10.3752,9.18249 C 10.7529,9.02962 11,8.66295 11,8.25555 V 3 h 2 v 5.25555 c 0,0.4074 0.2471,0.77407 0.6248,0.92694 l 0.6248,0.2529 C 15.1075,9.78268 15.8661,10.3221 16.4726,11 H 7.52739 C 8.13388,10.3221 8.89249,9.78268 9.75043,9.43539 Z M 6.3414,13 C 6.12025,13.6258 6,14.2991 6,15 c 0,3.3137 2.68629,6 6,6 3.3137,0 6,-2.6863 6,-6 0,-0.7009 -0.1202,-1.3742 -0.3414,-2 z"
     fill-rule="evenodd"
     id="path3"
     style="fill:#0f0f0f"
     sodipodi:insensitive="true" />
  <path
     style="fill:none;stroke:#000000;stroke-width:1px;stroke-linecap:butt;stroke-linejoin:miter;stroke-opacity:1"
     d="M 5.6878613,12.346821 5.4104046,17"
     id="path5" />
</svg>
