<?xml version="1.0" encoding="UTF-8" standalone="no"?>
<!DOCTYPE svg PUBLIC "-//W3C//DTD SVG 1.1//EN" "http://www.w3.org/Graphics/SVG/1.1/DTD/svg11.dtd">
<!-- Created with Vectornator (http://vectornator.io/) -->
<svg height="100%" stroke-miterlimit="10" style="fill-rule:nonzero;clip-rule:evenodd;stroke-linecap:round;stroke-linejoin:round;" version="1.1" viewBox="0 0 1024 1024" width="100%" xml:space="preserve" xmlns="http://www.w3.org/2000/svg" xmlns:vectornator="http://vectornator.io" xmlns:xlink="http://www.w3.org/1999/xlink">
<defs/>
<g id="Layer-1" vectornator:layerName="Layer 1">
<path d="M373.662 114.354C365.807 114.354 359.44 120.721 359.44 128.575L359.44 140.222C359.44 148.076 365.807 154.443 373.662 154.443L429.006 154.443C436.86 154.443 443.227 160.811 443.227 168.665L443.227 317.445C310.608 348.568 211.784 467.292 211.784 609.405C211.784 775.211 346.168 909.646 511.975 909.646C677.782 909.646 812.216 775.212 812.216 609.405C812.216 467.292 713.341 348.568 580.722 317.445L580.722 168.665C580.722 160.811 587.089 154.443 594.943 154.443L650.338 154.443C658.193 154.443 664.56 148.076 664.56 140.222L664.56 128.575C664.56 120.721 658.193 114.354 650.338 114.354L373.662 114.354Z" fill="#905cc1" fill-rule="nonzero" opacity="1" stroke="#905cc0" stroke-linecap="butt" stroke-linejoin="round" stroke-width="10" vectornator:layerName="Curve 21"/>
<path d="M742.236 518.267C713.084 582.828 676.789 639.148 622.881 640.162C533.139 641.851 536.47 584.067 436.506 584.067C362.006 584.067 317.722 637.439 265.375 703.828C301.706 803.13 396.731 874.147 508.607 874.147C651.786 874.147 767.844 758.037 767.844 614.858C767.844 580.685 761.059 548.142 749.044 518.267L742.236 518.267Z" fill="#ffffff" fill-rule="nonzero" opacity="1" stroke="none" vectornator:layerName="Curve 22"/>
<path d="M362.401 674.529C362.401 643.562 387.505 618.458 418.473 618.458C449.44 618.458 474.544 643.562 474.544 674.529C474.544 705.497 449.44 730.601 418.473 730.601C387.505 730.601 362.401 705.497 362.401 674.529Z" fill="#905cc0" fill-rule="nonzero" opacity="1" stroke="none" vectornator:layerName="Oval 19"/>
<path d="M512 801.847C512 786.542 524.408 774.134 539.714 774.134C555.02 774.134 567.428 786.542 567.428 801.847C567.428 817.153 555.02 829.561 539.714 829.561C524.408 829.561 512 817.153 512 801.847Z" fill="#905cc0" fill-rule="nonzero" opacity="1" stroke="none" vectornator:layerName="Oval 20"/>
<path d="M567.428 696.207C567.428 677.211 582.827 661.813 601.822 661.813C620.817 661.813 636.216 677.211 636.216 696.207C636.216 715.202 620.817 730.601 601.822 730.601C582.827 730.601 567.428 715.202 567.428 696.207Z" fill="#905cc0" fill-rule="nonzero" opacity="1" stroke="none" vectornator:layerName="Oval 21"/>
<path d="M566.685 482.739C566.685 461.27 584.09 443.865 605.56 443.865C627.029 443.865 644.434 461.27 644.434 482.739C644.434 504.209 627.029 521.614 605.56 521.614C584.09 521.614 566.685 504.209 566.685 482.739Z" fill="#ffffff" fill-rule="nonzero" opacity="1" stroke="none" vectornator:layerName="Oval 22"/>
</g>
</svg>
