<?xml version="1.0" encoding="UTF-8"?>
<svg id="Layer_1" xmlns="http://www.w3.org/2000/svg" version="1.1" viewBox="0 0 736 136">
  <!-- Generator: Adobe Illustrator 29.2.1, SVG Export Plug-In . SVG Version: 2.1.0 Build 116)  -->
  <defs>
    <style>
      .st0 {
        fill: #4d438f;
      }

      .st1 {
        fill: #fff;
      }
    </style>
  </defs>
  <rect class="st1" width="736" height="136"/>
  <g>
    <path class="st0" d="M99.8,79.7c1.1-.7,1.5-2.1.9-3.2-.7-1.1-2.1-1.5-3.2-.9l-7.5,4.3v-22.7l7.5,4.3c.4.2.8.3,1.2.3.8,0,1.6-.4,2-1.2.7-1.1.3-2.6-.9-3.2l-9.9-5.7v-11.4c0-1.3-1.1-2.4-2.4-2.4s-2.4,1.1-2.4,2.4v8.7l-19.7-11.3,7.5-4.3c1.1-.7,1.5-2.1.9-3.2-.7-1.1-2.1-1.5-3.2-.9l-9.9,5.7-9.9-5.7c-1.1-.7-2.6-.3-3.2.9-.7,1.1-.3,2.6.9,3.2l7.5,4.3-19.7,11.3v-8.7c0-1.3-1.1-2.4-2.4-2.4s-2.4,1.1-2.4,2.4v11.4l-9.9,5.7c-1.1.7-1.5,2.1-.9,3.2.4.8,1.2,1.2,2,1.2s.8,0,1.2-.3l7.5-4.3v22.7l-7.5-4.3c-1.1-.7-2.6-.3-3.2.9-.7,1.1-.3,2.6.9,3.2l9.9,5.7v11.4c0,1.3,1.1,2.4,2.4,2.4s2.4-1.1,2.4-2.4v-8.7l19.7,11.3-7.5,4.3c-1.1.7-1.5,2.1-.9,3.2.4.8,1.2,1.2,2,1.2s.8,0,1.2-.3l9.9-5.7,9.9,5.7c.4.2.8.3,1.2.3.8,0,1.6-.4,2-1.2.7-1.1.3-2.6-.9-3.2l-7.5-4.3,19.7-11.3v8.7c0,1.3,1.1,2.4,2.4,2.4s2.4-1.1,2.4-2.4v-11.4s9.9-5.7,9.9-5.7ZM38.8,84.1l19.7-11.3v22.7l-19.7-11.3h0ZM82.8,53.2l-19.7,11.3v-22.7l19.7,11.3h0ZM36.5,57.3l19.7,11.3-19.7,11.3v-22.7h0ZM65.5,68.6l19.7-11.3v22.7l-19.7-11.3h0ZM58.5,64.6l-19.7-11.3,19.7-11.3v22.7h0ZM63.2,72.7l19.7,11.3-19.7,11.3v-22.7h0Z"/>
    <path class="st0" d="M91.3,30.7l17.6,10.2v20.4h0c0,1.3,1.1,2.4,2.4,2.4s2.4-1.1,2.4-2.4h0v-21.6c0-.7-.3-1.5-.9-2,0,0-.2-.1-.3-.2l-18.8-10.8c-.4-.2-.9-.3-1.3-.3-.8,0-1.5.5-1.9,1.2-.7,1.1-.3,2.6.9,3.2h0Z"/>
    <path class="st0" d="M43.2,23.3l17.6-10.2,17.6,10.2c.4.2.8.3,1.2.3.8,0,1.6-.4,2-1.2.7-1.1.3-2.6-.9-3.2l-18.6-10.8c-.7-.4-1.6-.5-2.4,0h0l-18.8,10.8c-1.1.7-1.5,2.1-.9,3.2.7,1.1,2.1,1.5,3.2.9Z"/>
    <path class="st0" d="M10.4,63.6h.5c1.1-.2,1.9-1.2,1.9-2.3v-20.4l17.6-10.2c1.1-.7,1.5-2.1.9-3.2-.7-1.1-2.1-1.5-3.2-.9l-18.1,10.4h0l-.7.4c-.7.4-1.2,1.1-1.3,1.9v22c0,1.3,1.1,2.4,2.4,2.4h0Z"/>
    <path class="st0" d="M30.4,106.6l-17.6-10.2v-20.4c0-1.3-1.1-2.4-2.4-2.4s-.6,0-.9.2c-.8.4-1.4,1.2-1.4,2.2v21.6h0v.5h0c0,.4.2.7.5,1h0c0,0,.2.2.3.3h0s.1,0,.2,0h0l18.8,10.9h0c.4.2.8.3,1.2.3.8,0,1.6-.4,2-1.2.7-1.1.3-2.6-.9-3.2l.2.3Z"/>
    <path class="st0" d="M80.3,113.8c-.6-.2-1.2,0-1.8.2l-17.6,10.2-17.6-10.2c-.4-.2-.9-.3-1.3-.3-.8,0-1.5.5-1.9,1.2-.7,1.1-.3,2.6.9,3.2l18,10.4h0l.7.4c.4.2.8.4,1.3.4s.7,0,1.1-.2h.2l18.8-10.8c1.1-.7,1.5-2.1.9-3.2-.3-.6-.9-.9-1.4-1.1l-.3-.2Z"/>
    <path class="st0" d="M113.5,75.1c-.4-.8-1.2-1.4-2.2-1.4s-2.4,1.1-2.4,2.4v20.4l-17.6,10.2c-.4.2-.7.6-.9,1-.3.7-.3,1.5,0,2.2.4.8,1.2,1.2,2,1.2s.8,0,1.2-.3l18.7-10.8c.7-.4,1.2-1,1.2-1.9v-22c0-.3,0-.6-.2-.9h.2Z"/>
  </g>
  <g>
    <g>
      <path class="st0" d="M153.4,46.2h-13.1c-1.8,0-3.4-1.5-3.4-3.4s1.5-3.3,3.4-3.3h33.3c1.8,0,3.3,1.4,3.3,3.3s-1.4,3.4-3.3,3.4h-13.1v49.1c0,1.9-1.6,3.6-3.6,3.6s-3.5-1.7-3.5-3.6v-49.1h0Z"/>
      <path class="st0" d="M176,72.7c0-10.8,6.9-18.1,17.3-18.1s3.1,1.3,3.1,3.1-1.4,3.1-3.1,3.1c-6.2,0-10.6,4.1-10.6,11.9v22.7c0,1.9-1.5,3.4-3.4,3.4s-3.4-1.5-3.4-3.4v-22.7h0Z"/>
      <path class="st0" d="M237.3,92.4c-3.9,4.2-9.4,6.7-15.7,6.7-12.3,0-21.7-9.8-21.7-22.2s9.4-22.2,21.7-22.2,11.7,2.6,15.7,6.7v-3.2c0-1.8,1.5-3.4,3.4-3.4s3.4,1.5,3.4,3.4v37.3c0,1.9-1.4,3.4-3.4,3.4s-3.4-1.5-3.4-3.4c0,0,0-3.1,0-3.1ZM237.3,77.5v-1.3c-.3-8.7-7-15.3-15.3-15.3s-15.3,7-15.3,16,6.8,16,15.3,16,14.9-6.6,15.3-15.3h0Z"/>
      <path class="st0" d="M254.7,74c0-12.2,8.1-19.4,18.4-19.4s18.4,7.2,18.4,19.4v21.5c0,1.9-1.5,3.4-3.4,3.4s-3.4-1.5-3.4-3.4v-21.6c0-8.5-5.2-13-11.7-13s-11.6,4.4-11.6,13v21.6c0,1.9-1.5,3.4-3.4,3.4s-3.4-1.5-3.4-3.4v-21.5h0Z"/>
      <path class="st0" d="M302.7,85.7c1.1,0,2.4.7,2.8,2,.8,2.3,2.9,5.4,7.5,5.4s6.6-2.9,6.6-6.1-3.4-6.1-7.8-7.6c-5.8-1.9-11.6-4.2-11.6-12.5s5.4-12.2,12.9-12.2,13,4.4,13,10.1-1.3,3-3,3-2.4-.4-2.9-2.3c-.6-2.2-3.1-4.8-7-4.8s-6.5,2.9-6.5,6.2,4,5.9,9,7.5c5.3,1.6,10.7,4.5,10.7,12.4s-5.7,12.3-13.3,12.3-13.3-4.9-13.3-10.4,1.3-3,3-3h-.1Z"/>
      <path class="st0" d="M339.2,55.5c.7-10.2,7.9-16.6,17.7-16.6s3.1,1.4,3.1,3.1-1.4,3.1-3.1,3.1c-6.2,0-10.3,3.7-10.9,10.4h10.9c1.8,0,3.1,1.3,3.1,3.1s-1.3,3.1-3.1,3.1h-11v33.8c0,1.9-1.5,3.4-3.4,3.4s-3.4-1.5-3.4-3.4v-33.8h-4.4c-1.8,0-3.1-1.4-3.1-3.1s1.3-3.1,3.1-3.1h4.5Z"/>
      <path class="st0" d="M361.6,76.9c0-12.4,9.6-22.2,22.1-22.2s22,9.8,22,22.2-9.5,22.2-22,22.2-22.1-9.8-22.1-22.2ZM399,76.9c0-8.9-6.6-16-15.3-16s-15.3,7.1-15.3,16,6.7,16,15.3,16,15.3-7.2,15.3-16Z"/>
      <path class="st0" d="M415.3,72.7c0-10.8,6.9-18.1,17.3-18.1s3.1,1.3,3.1,3.1-1.4,3.1-3.1,3.1c-6.2,0-10.6,4.1-10.6,11.9v22.7c0,1.9-1.5,3.4-3.4,3.4s-3.4-1.5-3.4-3.4v-22.7h.1Z"/>
      <path class="st0" d="M441.2,70.9c0-10.5,6.9-16.3,15.4-16.3s9.7,2,12.2,6.1c2.3-4.1,7-6.1,12.1-6.1,8.6,0,15.5,5.8,15.5,16.3v24.6c0,1.9-1.5,3.4-3.4,3.4s-3.4-1.5-3.4-3.4v-24.6c0-6.6-3.9-10-8.8-10s-8.7,3.4-8.7,10v24.6c0,1.9-1.5,3.4-3.4,3.4s-3.4-1.5-3.4-3.4v-24.6c0-6.6-3.9-10-8.8-10s-8.7,3.4-8.7,10v24.6c0,1.9-1.5,3.4-3.4,3.4s-3.4-1.5-3.4-3.4v-24.6h.2Z"/>
      <path class="st0" d="M504.9,76.9c0-12.4,9.6-22.2,22.1-22.2s11.2,2.3,14.5,5.4c.8.7,1.3,1.6,1.3,2.6s-.3,1.6-1.1,2.5l-14.9,17.8c-.7.8-1.4,1.1-2.3,1.1-1.8,0-3.2-1.3-3.2-3s.2-1.5.8-2.1l13.1-15.4c-2.2-1.8-5.3-2.7-8-2.7-8.5,0-15.3,7-15.3,16s6.7,16,15.3,16,8.5-2.1,11.1-5c.9-.8,1.7-1.5,2.8-1.5,1.9,0,3.4,1.3,3.4,3.2s-.4,1.6-1,2.3c-3.5,4.2-9.3,7.3-16.3,7.3-12.5,0-22.1-9.8-22.1-22.2h-.2Z"/>
      <path class="st0" d="M552.8,72.7c0-10.8,6.9-18.1,17.3-18.1s3.1,1.3,3.1,3.1-1.4,3.1-3.1,3.1c-6.2,0-10.6,4.1-10.6,11.9v22.7c0,1.9-1.5,3.4-3.4,3.4s-3.4-1.5-3.4-3.4v-22.7h.1Z"/>
    </g>
    <g>
      <path class="st0" d="M595.4,42.5c0-2,1.6-3.6,3.5-3.6s3.6,1.6,3.6,3.6v49.1h20.2c1.8,0,3.3,1.4,3.3,3.3s-1.4,3.4-3.3,3.4h-23.8c-1.9,0-3.5-1.6-3.5-3.6v-52.1h0Z"/>
      <path class="st0" d="M665.8,92.4c-3.9,4.2-9.4,6.7-15.7,6.7-12.3,0-21.7-9.8-21.7-22.2s9.4-22.2,21.7-22.2,11.7,2.6,15.7,6.7v-3.2c0-1.8,1.5-3.4,3.4-3.4s3.4,1.5,3.4,3.4v37.3c0,1.9-1.4,3.4-3.4,3.4s-3.4-1.5-3.4-3.4c0,0,0-3.1,0-3.1ZM665.8,77.5v-1.3c-.3-8.7-7-15.3-15.3-15.3s-15.3,7-15.3,16,6.8,16,15.3,16,14.9-6.6,15.3-15.3h0Z"/>
      <path class="st0" d="M690.6,92.4v3.1c0,1.9-1.5,3.4-3.4,3.4s-3.4-1.5-3.4-3.4v-53.2c0-1.8,1.4-3.4,3.4-3.4s3.4,1.5,3.4,3.4v19.1c3.9-4.1,9.4-6.7,15.7-6.7,12.3,0,21.7,9.8,21.7,22.2s-9.4,22.2-21.7,22.2-11.8-2.5-15.7-6.7ZM721.2,76.9c0-9-6.8-16-15.3-16s-14.9,6.6-15.3,15.3v1.3c.3,8.7,6.9,15.3,15.3,15.3s15.3-7,15.3-16h0Z"/>
    </g>
  </g>
</svg>