<?xml version="1.0" encoding="UTF-8"?>
<svg id="Layer_1" xmlns="http://www.w3.org/2000/svg" version="1.1" viewBox="0 0 720 121.284">
  <!-- Generator: Adobe Illustrator 29.2.1, SVG Export Plug-In . SVG Version: 2.1.0 Build 116)  -->
  <defs>
    <style>
      .st0 {
        fill: #4d438f;
      }
    </style>
  </defs>
  <g>
    <path class="st0" d="M91.801,71.722c1.127-.651,1.513-2.092.863-3.22-.652-1.127-2.093-1.514-3.22-.863l-7.531,4.348v-22.692l7.531,4.348c.371.214.776.316,1.176.316.814,0,1.606-.423,2.043-1.179.651-1.127.264-2.568-.863-3.22l-9.888-5.709v-11.418c0-1.302-1.055-2.357-2.357-2.357s-2.357,1.055-2.357,2.357v8.696l-19.651-11.346,7.531-4.348c1.127-.651,1.513-2.092.863-3.22-.651-1.127-2.092-1.514-3.22-.863l-9.888,5.709-9.888-5.709c-1.128-.651-2.568-.264-3.22.863-.651,1.127-.264,2.568.863,3.22l7.531,4.348-19.651,11.346v-8.696c0-1.302-1.055-2.357-2.357-2.357s-2.357,1.055-2.357,2.357v11.418l-9.888,5.709c-1.127.651-1.513,2.092-.863,3.22.437.756,1.229,1.179,2.043,1.179.4,0,.805-.102,1.176-.316l7.531-4.348v22.692l-7.531-4.348c-1.127-.651-2.568-.264-3.22.863-.651,1.127-.264,2.568.863,3.22l9.888,5.709v11.418c0,1.302,1.055,2.357,2.357,2.357s2.357-1.055,2.357-2.357v-8.696l19.651,11.346-7.531,4.348c-1.127.651-1.513,2.092-.863,3.22.437.756,1.229,1.179,2.043,1.179.4,0,.805-.102,1.176-.316l9.888-5.709,9.888,5.709c.371.214.776.316,1.176.316.814,0,1.606-.423,2.043-1.179.651-1.127.264-2.568-.863-3.22l-7.531-4.348,19.651-11.346v8.696c0,1.302,1.055,2.357,2.357,2.357s2.357-1.055,2.357-2.357v-11.418l9.888-5.709ZM30.827,76.07l19.652-11.346v22.692l-19.652-11.346ZM74.843,45.214l-19.652,11.346v-22.692l19.652,11.346ZM28.47,49.297l19.651,11.345-19.651,11.345v-22.691ZM57.549,60.642l19.651-11.345v22.691l-19.651-11.346ZM50.478,56.56l-19.651-11.346,19.651-11.346v22.691ZM55.192,64.724l19.652,11.346-19.652,11.346v-22.692Z"/>
    <path class="st0" d="M83.322,22.683l17.631,10.179v20.361c0,1.302,1.055,2.357,2.357,2.357s2.357-1.055,2.357-2.357v-21.632c.027-.749-.303-1.495-.943-1.975-.092-.069-.187-.13-.285-.184l-18.759-10.831c-.423-.244-.89-.342-1.343-.31-.755.053-1.471.468-1.878,1.173-.651,1.127-.264,2.568.863,3.22Z"/>
    <path class="st0" d="M35.204,15.258l17.629-10.179,17.634,10.181c.371.214.776.316,1.176.316.814,0,1.606-.423,2.043-1.179.651-1.127.264-2.568-.863-3.22L54.101.368c-.706-.448-1.63-.505-2.412-.071-.017.009-.034.019-.051.029l-18.791,10.849c-1.127.651-1.513,2.092-.863,3.22.651,1.127,2.093,1.514,3.22.863Z"/>
    <path class="st0" d="M2.357,55.577c.163,0,.322-.017.476-.048,1.075-.219,1.884-1.169,1.884-2.309v-20.358l17.63-10.179c1.127-.651,1.513-2.092.863-3.22-.652-1.128-2.093-1.513-3.22-.863L1.992,28.992s-.002.001-.002.002l-.727.42c-.685.361-1.178,1.052-1.253,1.876-.008.088-.011.176-.009.264v21.666c0,1.302,1.055,2.357,2.357,2.357Z"/>
    <path class="st0" d="M22.351,98.604l-17.63-10.179v-20.361c0-1.302-1.055-2.357-2.357-2.357-.326,0-.636.066-.918.186-.847.357-1.442,1.195-1.442,2.172v21.595c0,.021.006.041.006.062,0,.004.001.009.001.013-.003.161.01.319.039.476.004.021.006.042.01.063.076.354.229.688.459.975.016.02.036.037.053.057.097.114.205.218.325.313.02.016.033.036.053.051.055.041.113.074.17.11.02.013.037.029.058.042l18.812,10.861s0,0,0,0l.003.002c.371.214.776.316,1.176.316.814,0,1.606-.423,2.043-1.179.651-1.127.264-2.568-.863-3.22Z"/>
    <path class="st0" d="M72.256,105.791c-.583-.157-1.226-.092-1.791.234l-17.629,10.178-17.628-10.178c-.423-.244-.89-.342-1.343-.31-.756.052-1.474.467-1.881,1.173-.651,1.127-.264,2.568.863,3.22l17.999,10.391c.006.003.012.004.018.007l.712.411c.377.239.818.367,1.266.367.355,0,.716-.08,1.054-.249.055-.028.108-.057.16-.088l18.771-10.838c1.127-.651,1.513-2.092.863-3.22-.326-.565-.851-.943-1.435-1.099Z"/>
    <path class="st0" d="M105.481,67.148c-.358-.846-1.195-1.44-2.172-1.44-1.302,0-2.357,1.055-2.357,2.357v20.358l-17.631,10.179c-.423.244-.741.6-.94,1.008-.332.681-.331,1.509.076,2.214.437.756,1.229,1.179,2.043,1.179.4,0,.805-.102,1.176-.316l18.732-10.815c.677-.359,1.165-1.039,1.246-1.852.01-.096.013-.191.011-.286v-21.666c0-.326-.066-.637-.186-.919Z"/>
  </g>
  <g>
    <g>
      <path class="st0" d="M145.373,38.185h-13.073c-1.843,0-3.351-1.508-3.351-3.352s1.508-3.268,3.351-3.268h33.267c1.844,0,3.268,1.425,3.268,3.268s-1.424,3.352-3.268,3.352h-13.072v49.105c0,1.928-1.592,3.604-3.604,3.604-1.927,0-3.519-1.676-3.519-3.604v-49.105Z"/>
      <path class="st0" d="M167.998,64.748c0-10.809,6.872-18.1,17.262-18.1,1.676,0,3.101,1.341,3.101,3.1,0,1.676-1.425,3.101-3.101,3.101-6.201,0-10.558,4.106-10.558,11.899v22.709c0,1.928-1.508,3.436-3.352,3.436-1.927,0-3.352-1.508-3.352-3.436v-22.709Z"/>
      <path class="st0" d="M229.337,84.357c-3.939,4.19-9.386,6.704-15.671,6.704-12.318,0-21.704-9.804-21.704-22.206s9.386-22.206,21.704-22.206c6.285,0,11.732,2.598,15.671,6.704v-3.184c0-1.844,1.508-3.352,3.352-3.352,1.927,0,3.351,1.508,3.351,3.352v37.289c0,1.928-1.424,3.436-3.351,3.436-1.844,0-3.352-1.508-3.352-3.436v-3.1ZM229.337,69.525v-1.341c-.336-8.715-6.956-15.335-15.251-15.335-8.547,0-15.335,6.955-15.335,16.005s6.788,16.005,15.335,16.005c8.296,0,14.916-6.62,15.251-15.335Z"/>
      <path class="st0" d="M246.695,66.005c0-12.15,8.128-19.357,18.352-19.357,10.307,0,18.435,7.207,18.435,19.357v21.452c0,1.928-1.508,3.436-3.351,3.436-1.928,0-3.352-1.508-3.352-3.436v-21.62c0-8.547-5.196-12.988-11.732-12.988-6.452,0-11.649,4.441-11.649,12.988v21.62c0,1.928-1.508,3.436-3.351,3.436-1.928,0-3.352-1.508-3.352-3.436v-21.452Z"/>
      <path class="st0" d="M294.741,77.653c1.089,0,2.429.671,2.849,2.012.754,2.346,2.933,5.363,7.458,5.363,4.021,0,6.62-2.933,6.62-6.117,0-4.19-3.351-6.117-7.793-7.626-5.781-1.927-11.648-4.19-11.648-12.485,0-6.872,5.447-12.151,12.905-12.151,7.038,0,12.988,4.358,12.988,10.056,0,1.675-1.341,3.017-3.017,3.017-.922,0-2.43-.419-2.934-2.347-.586-2.179-3.1-4.776-7.038-4.776-4.106,0-6.452,2.933-6.452,6.201,0,4.441,4.022,5.949,8.967,7.542,5.279,1.592,10.726,4.525,10.726,12.402,0,6.62-5.699,12.318-13.324,12.318-7.29,0-13.324-4.944-13.324-10.391,0-1.676,1.341-3.017,3.018-3.017Z"/>
      <path class="st0" d="M331.191,47.486c.67-10.223,7.876-16.592,17.681-16.592,1.76,0,3.1,1.424,3.1,3.1,0,1.76-1.424,3.1-3.1,3.1-6.201,0-10.307,3.687-10.894,10.391h10.894c1.76,0,3.1,1.34,3.1,3.1,0,1.676-1.34,3.1-3.1,3.1h-10.977v33.77c0,1.928-1.509,3.436-3.352,3.436-1.928,0-3.352-1.508-3.352-3.436v-33.77h-4.441c-1.759,0-3.1-1.424-3.1-3.1,0-1.76,1.341-3.1,3.1-3.1h4.441Z"/>
      <path class="st0" d="M353.648,68.855c0-12.402,9.554-22.206,22.123-22.206s22.038,9.804,22.038,22.206-9.469,22.206-22.038,22.206-22.123-9.804-22.123-22.206ZM391.022,68.855c0-8.883-6.62-16.005-15.251-16.005s-15.335,7.122-15.335,16.005c0,8.798,6.704,16.005,15.335,16.005s15.251-7.207,15.251-16.005Z"/>
      <path class="st0" d="M407.277,64.748c0-10.809,6.871-18.1,17.262-18.1,1.675,0,3.1,1.341,3.1,3.1,0,1.676-1.425,3.101-3.1,3.101-6.202,0-10.559,4.106-10.559,11.899v22.709c0,1.928-1.508,3.436-3.351,3.436-1.928,0-3.352-1.508-3.352-3.436v-22.709Z"/>
      <path class="st0" d="M433.168,62.905c0-10.475,6.871-16.257,15.418-16.257,5.447,0,9.721,2.011,12.151,6.117,2.347-4.106,7.039-6.117,12.067-6.117,8.631,0,15.502,5.782,15.502,16.257v24.552c0,1.928-1.508,3.436-3.352,3.436-1.927,0-3.351-1.508-3.351-3.436v-24.636c0-6.62-3.855-9.972-8.799-9.972-4.861,0-8.715,3.351-8.715,9.972v24.636c0,1.928-1.509,3.436-3.352,3.436-1.927,0-3.352-1.508-3.352-3.436v-24.636c0-6.62-3.854-9.972-8.799-9.972-4.86,0-8.715,3.351-8.715,9.972v24.636c0,1.928-1.508,3.436-3.351,3.436-1.928,0-3.352-1.508-3.352-3.436v-24.552Z"/>
      <path class="st0" d="M496.883,68.855c0-12.402,9.554-22.206,22.123-22.206,6.117,0,11.228,2.347,14.496,5.363.755.671,1.257,1.592,1.257,2.598,0,.838-.252,1.592-1.089,2.514l-14.916,17.848c-.67.754-1.425,1.089-2.347,1.089-1.843,0-3.184-1.257-3.184-3.017,0-.754.168-1.508.755-2.095l13.072-15.419c-2.179-1.844-5.279-2.682-8.044-2.682-8.547,0-15.335,7.039-15.335,16.005,0,8.882,6.704,16.005,15.335,16.005,4.776,0,8.547-2.095,11.144-5.028.923-.838,1.677-1.508,2.85-1.508,1.927,0,3.352,1.341,3.352,3.184,0,.671-.419,1.592-1.006,2.263-3.52,4.19-9.302,7.29-16.341,7.29-12.485,0-22.123-9.804-22.123-22.206Z"/>
      <path class="st0" d="M544.76,64.748c0-10.809,6.871-18.1,17.262-18.1,1.675,0,3.1,1.341,3.1,3.1,0,1.676-1.425,3.101-3.1,3.101-6.202,0-10.559,4.106-10.559,11.899v22.709c0,1.928-1.508,3.436-3.351,3.436-1.928,0-3.352-1.508-3.352-3.436v-22.709Z"/>
    </g>
    <g>
      <path class="st0" d="M587.369,34.498c0-2.011,1.593-3.603,3.52-3.603,2.011,0,3.604,1.592,3.604,3.603v49.104h20.195c1.843,0,3.268,1.425,3.268,3.268s-1.425,3.352-3.268,3.352h-23.798c-1.927,0-3.52-1.592-3.52-3.603v-52.121Z"/>
      <path class="st0" d="M657.841,84.357c-3.939,4.19-9.386,6.703-15.67,6.703-12.317,0-21.702-9.804-21.702-22.206s9.385-22.206,21.702-22.206c6.285,0,11.731,2.598,15.67,6.704v-3.184c0-1.844,1.508-3.352,3.352-3.352,1.927,0,3.351,1.508,3.351,3.352v37.289c0,1.928-1.424,3.436-3.351,3.436-1.844,0-3.352-1.508-3.352-3.436v-3.1ZM657.841,69.525v-1.341c-.336-8.715-6.956-15.334-15.251-15.334-8.547,0-15.335,6.955-15.335,16.005s6.788,16.005,15.335,16.005c8.296,0,14.916-6.62,15.251-15.334Z"/>
      <path class="st0" d="M682.642,84.357v3.1c0,1.928-1.508,3.436-3.351,3.436-1.928,0-3.352-1.508-3.352-3.436v-53.211c0-1.843,1.424-3.351,3.352-3.351,1.843,0,3.351,1.508,3.351,3.351v19.106c3.855-4.106,9.386-6.704,15.67-6.704,12.317,0,21.703,9.804,21.703,22.206s-9.386,22.206-21.703,22.206c-6.285,0-11.815-2.514-15.67-6.703ZM713.228,68.855c0-9.05-6.788-16.005-15.335-16.005-8.379,0-14.916,6.62-15.251,15.334v1.341c.336,8.714,6.872,15.334,15.251,15.334,8.547,0,15.335-6.955,15.335-16.005Z"/>
    </g>
  </g>
</svg>